<svg width="20" height="20" fill="none" xmlns="http://www.w3.org/2000/svg"><path d="M.713 1.429h1.484a.898.898 0 01.892.75L3.567 5.1v.043l1.427 8.571a.714.714 0 00.714.572h11.417a.713.713 0 00.713-.543l2.14-8.572a.716.716 0 00-.713-.885H4.887L4.495 1.95A2.322 2.322 0 002.197 0H.713a.713.713 0 000 1.429zm17.639 4.285l-1.784 7.143H6.314L5.123 5.714h13.229zm-2.655 10a2.14 2.14 0 00-2.099 2.561 2.143 2.143 0 002.919 1.562 2.141 2.141 0 001.321-1.98 2.144 2.144 0 00-2.14-2.143zm0 2.857a.714.714 0 110-1.427.714.714 0 010 1.427zm-10.703-.714a2.144 2.144 0 002.559 2.102 2.14 2.14 0 001.681-1.684 2.145 2.145 0 00-2.099-2.56 2.14 2.14 0 00-2.14 2.142zm2.855 0a.715.715 0 01-1.219.505.714.714 0 111.219-.505z" fill="#2B2A29"/></svg>