<svg width="20" height="20" fill="none" xmlns="http://www.w3.org/2000/svg"><g clip-path="url(#clip0_2009_5136)"><path d="M10 18.794c-.285 0-.56-.104-.774-.291-.808-.706-1.586-1.37-2.274-1.956l-.003-.003c-2.015-1.717-3.755-3.2-4.966-4.66C.63 10.25 0 8.701 0 7.01c0-1.644.563-3.16 1.586-4.27a5.378 5.378 0 014-1.741A5.03 5.03 0 018.73 2.085c.47.363.896.808 1.27 1.326a6.43 6.43 0 011.271-1.326A5.03 5.03 0 0114.413 1c1.544 0 2.965.618 4 1.741C19.436 3.851 20 5.367 20 7.011c0 1.691-.63 3.24-1.984 4.872-1.21 1.461-2.95 2.944-4.965 4.66-.688.587-1.469 1.252-2.278 1.96-.214.188-.49.29-.773.29zM5.587 2.172a4.22 4.22 0 00-3.14 1.363c-.823.893-1.276 2.127-1.276 3.476 0 1.422.529 2.694 1.714 4.125 1.146 1.382 2.85 2.835 4.823 4.516l.004.004c.69.587 1.472 1.254 2.286 1.966a272.39 272.39 0 012.293-1.97c1.973-1.682 3.677-3.134 4.823-4.516 1.185-1.43 1.714-2.703 1.714-4.125 0-1.349-.453-2.583-1.276-3.476a4.22 4.22 0 00-3.14-1.363 3.88 3.88 0 00-2.425.84c-.643.496-1.09 1.124-1.352 1.564a.734.734 0 01-.635.36.734.734 0 01-.636-.36c-.262-.44-.71-1.068-1.352-1.565a3.885 3.885 0 00-2.425-.84z" fill="#2B2A29"/></g><defs><clipPath id="clip0_2009_5136"><path fill="#fff" d="M0 0h20v20H0z"/></clipPath></defs></svg>