<svg width="20" height="20" fill="none" xmlns="http://www.w3.org/2000/svg"><g clip-path="url(#clip0_36_273)"><path d="M14.688 1.172a4.74 4.74 0 00-2.958 1.022c-.84.65-1.4 1.479-1.73 2.08-.33-.601-.89-1.43-1.73-2.08a4.735 4.735 0 00-2.957-1.022C2.283 1.172 0 3.649 0 6.934c0 3.55 2.85 5.977 7.163 9.653.732.624 1.563 1.332 2.426 2.087a.624.624 0 00.822 0c.864-.755 1.694-1.463 2.427-2.087C17.15 12.91 20 10.483 20 6.934c0-3.285-2.284-5.762-5.313-5.762z" fill="#2B2A29"/></g><defs><clipPath id="clip0_36_273"><path fill="#fff" d="M0 0h20v20H0z"/></clipPath></defs></svg>