<svg width="16" height="16" fill="none" xmlns="http://www.w3.org/2000/svg"><path d="M8 5.066a2.936 2.936 0 000 5.872A2.942 2.942 0 0010.939 8a2.939 2.939 0 00-2.937-2.934z" fill="#2B2A29"/><path d="M12.429 0H3.57A3.577 3.577 0 000 3.571v8.858a3.575 3.575 0 003.571 3.57h8.858c1.97 0 3.57-1.6 3.57-3.57V3.57A3.573 3.573 0 0012.43 0zM8 13.184A5.191 5.191 0 012.816 8 5.188 5.188 0 018 2.82 5.188 5.188 0 0113.184 8 5.191 5.191 0 018 13.184zm5.293-9.424a1.097 1.097 0 11-.002-2.193 1.097 1.097 0 01.002 2.193z" fill="#2B2A29"/></svg>