<svg width="16" height="16" viewBox="0 0 16 16" fill="none" xmlns="http://www.w3.org/2000/svg">
<path d="M8.00079 5.06563C6.3816 5.06563 5.06641 6.38082 5.06641 8.00001C5.06641 9.6192 6.3816 10.9376 8.00079 10.9376C9.61998 10.9376 10.9384 9.6192 10.9384 8.00001C10.9384 6.38082 9.61998 5.06563 8.00079 5.06563Z" fill="#2B2A29"/>
<path d="M12.4287 0H3.57118C1.60319 0 0 1.60319 0 3.57118V12.4287C0 14.3999 1.60319 15.9999 3.57118 15.9999H12.4287C14.3999 15.9999 15.9999 14.3999 15.9999 12.4287V3.57118C15.9999 1.60319 14.3999 0 12.4287 0ZM7.99996 13.1839C5.14237 13.1839 2.81599 10.8575 2.81599 7.99996C2.81599 5.14237 5.14237 2.81919 7.99996 2.81919C10.8575 2.81919 13.1839 5.14237 13.1839 7.99996C13.1839 10.8575 10.8575 13.1839 7.99996 13.1839ZM13.2927 3.75998C12.6879 3.75998 12.1951 3.27038 12.1951 2.66559C12.1951 2.06079 12.6879 1.56799 13.2927 1.56799C13.8975 1.56799 14.3903 2.06079 14.3903 2.66559C14.3903 3.27038 13.8975 3.75998 13.2927 3.75998Z" fill="#2B2A29"/>
</svg>
