<svg width="142" height="40" fill="none" xmlns="http://www.w3.org/2000/svg"><g clip-path="url(#clip0_2009_5105)"><path fill-rule="evenodd" clip-rule="evenodd" d="M91.73 28.038v-6.746a41.713 41.713 0 013.418-.144c.434 1.388 1.637 2.393 3.13 2.393 1.782 0 3.274-1.531 3.274-3.398 0-1.866-1.444-3.397-3.274-3.397-1.3 0-2.456.814-2.985 2.01-1.204 0-2.408.048-3.612.143v-6.555L100.638.287H142V40h-41.362l-8.86-11.962h-.049z" fill="#FFED00"/><path d="M123.124 26.89c1.012.24 1.927.574 2.697 1.053.77.43 1.445.956 1.926 1.483.53.526.963 1.1 1.252 1.675.289.574.53 1.052.626 1.483.144.43.193.765.144 1.005 0 .239-.096.287-.24.19a9.417 9.417 0 01-.674-.525c-.289-.24-.723-.479-1.252-.718-.53-.24-1.204-.383-2.023-.526-.818-.144-1.733-.144-2.793 0a20.462 20.462 0 00-3.755.86c-1.397.431-2.986 1.101-4.816 2.01-.433-.047-.915-.239-1.444-.622-.53-.382-1.06-.813-1.541-1.291-.482-.527-.867-1.101-1.252-1.723-.337-.622-.53-1.196-.53-1.77v-.335c.145-.527.53-.957 1.204-1.292a38.476 38.476 0 001.878-2.44c.722-1.005 1.493-2.058 2.311-3.206.819-1.148 1.589-2.297 2.408-3.493.77-1.196 1.493-2.296 2.119-3.35.626-1.052 1.155-1.96 1.54-2.726.386-.766.578-1.34.578-1.675-.337-.096-.77 0-1.3.287-.529.287-1.059.67-1.637 1.1-.578.479-1.204.957-1.782 1.532a40 40 0 01-1.733 1.53c-.53.48-1.011.862-1.396 1.197-.386.335-.675.43-.867.383-.241-.048-.482-.192-.771-.431-.289-.24-.626-.526-.915-.813-.288-.335-.529-.67-.77-1.005a1.996 1.996 0 01-.289-1.005c0-.335.193-.861.626-1.483.385-.574.915-1.196 1.541-1.866a27.955 27.955 0 012.119-1.914 23.846 23.846 0 012.359-1.675c.771-.478 1.493-.861 2.167-1.1.674-.24 1.252-.335 1.685-.24.626.144 1.3.431 1.974.814.675.383 1.301.909 1.878 1.579a7.118 7.118 0 011.397 2.249 7.03 7.03 0 01.481 2.918c0 .622-.24 1.436-.722 2.488-.481 1.053-1.107 2.201-1.83 3.445-.77 1.244-1.589 2.536-2.552 3.828-.963 1.292-1.926 2.536-2.889 3.637.963 0 1.83 0 2.697.095.818.048 1.492.144 2.022.287M87.203 12.632v.478c0 .191-.096.383-.144.574-.049.192-.145.383-.193.574a1.669 1.669 0 01-.289.431c-.289.335-1.011.526-2.118.526v-1.052c0-.287-.097-.527-.145-.718-.048-.144-.193-.287-.337-.383a1.612 1.612 0 00-.578-.239c-.192-.048-.433-.096-.626-.144H81.04c-.386 0-.77.048-1.108.096-.385.048-.722.144-1.107.24-.386.095-.77.239-1.156.382a3.72 3.72 0 00-.867.43 4.53 4.53 0 00-.866.575c-.29.191-.482.43-.675.67a1.8 1.8 0 00-.337.765c0 .192.097.43.241.718.145.287.337.526.578.813.24.288.53.527.867.718.337.24.674.383 1.06.479 0 0 .095 0 .24.095.144 0 .289.096.481.144.193.048.385.143.578.191.193.096.385.144.578.192a5.6 5.6 0 01.481.143c.145 0 .193.048.193.096 2.167.526 3.756 1.196 4.767 1.962 1.06.765 1.541 1.674 1.541 2.822 0 1.149-.096.718-.24 1.053-.145.335-.338.67-.579 1.005-.24.335-.481.622-.77.909a5.04 5.04 0 01-.819.67c-.288.191-.577.43-.914.622-.337.24-.723.43-1.108.67-.385.191-.77.43-1.204.574-.433.191-.818.335-1.252.478-.385.144-.818.24-1.3.383-.433.096-.915.191-1.348.287-.433.096-.867.144-1.3.192-.433 0-.77.047-1.108.047-.337 0-.385 0-.626-.047-.24 0-.53-.096-.818-.192-.29-.096-.578-.143-.819-.287-.289-.096-.53-.24-.77-.335a2.546 2.546 0 01-.53-.43.612.612 0 01-.192-.479c0-.191 0-.335.096-.526.048-.192.144-.43.24-.622.097-.192.241-.383.386-.526a.62.62 0 01.481-.192c.193 0 .434 0 .626.096.193.048.434.096.674.191.241.048.578.144.867.192.337.047.77.095 1.252.095a8.8 8.8 0 001.54-.143c.53-.096 1.06-.24 1.59-.43a13.92 13.92 0 001.493-.623c.481-.24.915-.478 1.3-.718.144-.095.337-.239.53-.382.192-.144.385-.288.577-.479.193-.191.29-.335.434-.526.096-.191.192-.383.192-.574 0-.192-.144-.43-.481-.622-.482-.287-.963-.527-1.445-.67-.481-.144-.915-.287-1.252-.383-1.011-.24-2.263-.67-3.707-1.244a8.928 8.928 0 01-1.782-.91 9.562 9.562 0 01-1.493-1.195c-.915-1.005-1.396-2.201-1.396-3.54 0-1.34.144-1.053.433-1.532a5.303 5.303 0 011.204-1.388c.53-.43 1.107-.86 1.781-1.196.675-.383 1.397-.67 2.167-.957.77-.287 1.541-.478 2.312-.622.77-.143 1.54-.239 2.311-.239.77 0 .53 0 .867.048.337 0 .722.096 1.059.143.385.048.722.144 1.06.24.336.095.577.191.77.287.53.287.963.622 1.252 1.005.289.382.481.765.481 1.148M68.135 23.254a7.408 7.408 0 01-1.156 2.775c-.578.861-1.252 1.579-2.118 2.153-.867.622-1.83 1.1-2.89 1.435a11.921 11.921 0 01-3.466.526c-1.204 0-.867-.047-1.349-.19-.481-.096-.963-.288-1.396-.431a15.71 15.71 0 01-1.252-.575c-.385-.239-.722-.43-.963-.67-.482-.43-.867-.956-1.204-1.483a8.058 8.058 0 01-.818-1.722c-.193-.622-.386-1.244-.482-1.866a12.179 12.179 0 01-.144-1.866c0-.622 0-.67.048-1.053 0-.383.096-.765.144-1.196.048-.43.145-.814.193-1.244.096-.43.144-.814.192-1.148.097-.479.193-.957.241-1.388.048-.43.145-.861.193-1.292.096-.622.24-1.244.289-1.914.096-.622.24-1.196.385-1.674.193-.479.433-.91.722-1.197a1.716 1.716 0 011.204-.478c.481 0 .385.096.53.24.192.143.337.334.481.573.145.24.241.431.337.67.097.24.145.383.145.527 0 .143 0 .19-.048.382 0 .192-.097.43-.145.67-.048.24-.144.527-.24.814-.097.287-.145.574-.241.813-.049.24-.145.478-.193.67-.048.191-.096.335-.096.383 0 .191-.097.478-.145.813-.048.335-.096.718-.192 1.148-.048.431-.145.862-.193 1.292-.048.479-.145.91-.193 1.34-.048.43-.096.813-.144 1.196 0 .383-.048.67-.048.91 0 1.339.24 2.583.674 3.683.096.288.289.527.578.814.289.287.578.526.915.718.337.239.674.382 1.059.526.337.143.626.191.915.191 1.396 0 2.552-.191 3.467-.574a4.33 4.33 0 002.118-1.914c.241-.43.386-.861.53-1.292.145-.43.24-.861.29-1.292.047-.43.144-.86.192-1.291 0-.431.096-.814.144-1.197.096-.957.193-1.818.24-2.679.049-.861.145-1.675.194-2.392a11.18 11.18 0 01.288-2.01c.097-.622.241-1.1.434-1.531.192-.43.433-.766.722-1.005.289-.24.674-.335 1.108-.335.433 0 .53 0 .674.144.192.095.337.239.433.383.096.19.193.382.24.574 0 .239.049.478.049.717 0 .24 0 .766-.096 1.197-.048.478-.145.957-.193 1.435-.096.479-.144.957-.24 1.435-.097.479-.145.862-.193 1.149 0 .287-.097.67-.145 1.052 0 .431-.048.862-.096 1.292 0 .622-.096 1.244-.193 1.962a51.429 51.429 0 01-.337 2.249m-20.32-10.957c0 .143 0 .335-.096.67-.048.335-.193.717-.385 1.196-.145.383-.29.717-.386 1.005-.096.287-.144.478-.144.622-.145 1.052-.337 2.153-.482 3.349-.144 1.196-.337 2.488-.53 3.923 0 .383-.096.814-.144 1.197-.048.43-.096.813-.144 1.196 0 .383-.048.67-.096.957v.574c0 .096 0 .143.048.287 0 .096.096.191.144.335 0 .096.096.239.145.335 0 .095.048.191.048.239 0 .191-.048.43-.193.622-.144.191-.337.43-.626.622-.24.191-.481.287-.722.383-.24.096-.482.143-.722.143-.434 0-.77-.095-1.012-.335-.24-.239-.433-.478-.53-.765-.096-.287-.192-.622-.192-.957v-2.058c0-.382.048-.813.096-1.196.097-.622.193-1.34.337-2.2.145-.814.29-1.723.434-2.68 0-.144.048-.383.144-.718.048-.335.145-.67.193-1.1.096-.43.144-.861.24-1.34.097-.478.193-.91.241-1.34.097-.43.145-.813.241-1.148.048-.335.096-.574.145-.766.048-.287.096-.526.144-.717 0-.144.048-.335.096-.479 0-.143.049-.287.097-.478 0-.192.096-.43.144-.718 0-.144.096-.287.145-.478.096-.192.192-.335.337-.527.144-.143.289-.287.481-.382.193-.096.337-.144.53-.144.385 0 .722.096.963.287.289.191.481.383.626.67.144.24.289.526.337.813.048.287.096.527.096.766v.191l-.048.144z" fill="#2B2A29"/><path fill-rule="evenodd" clip-rule="evenodd" d="M98.23 22.249c-1.926-.144-3.804-.24-5.73-.144-2.408.096-4.96.335-7.271 1.053-1.974.622-4.093 1.674-5.73 2.919-.482.382-.867.67-1.156 1.052h-.963V24.21c.145-.095.289-.239.482-.334a21.867 21.867 0 016.597-3.302c2.551-.813 5.344-1.1 7.993-1.196 2.022-.048 3.996 0 6.019.143l1.396.096-.193 2.775-1.396-.095-.048-.048z" fill="#FEFEFE"/><path d="M36.74 27.655c-.096.144-.24.24-.385.335-.145.096-.29.192-.482.24-.192.047-.337.095-.53.143h-2.551c-.434 0-.915 0-1.397.096-.53.096-1.06.191-1.54.287-.53.096-1.06.24-1.59.383-.53.143-1.011.287-1.444.383-.77.19-1.445.382-2.12.574-.673.143-1.203.239-1.684.239-.482 0-.77-.048-1.06-.144a1.815 1.815 0 01-.722-.43c-.193-.192-.289-.383-.385-.622a1.91 1.91 0 01-.145-.718c0-.478.049-1.005.145-1.675.096-.67.24-1.34.385-2.057 0-.191.096 0 .193-.574.096-.574.192-1.196.337-1.914.144-.718.24-1.531.385-2.345.144-.813.24-1.626.385-2.392.096-.765.24-1.435.289-2.01.096-.574.144-1.004.144-1.244 0-.43.097-.86.097-1.291 0-.383.048-.766.096-1.1 0-.336.096-.623.193-.91.096-.287.192-.478.337-.67.144-.191.337-.335.626-.43.24-.096.578-.144.963-.144s.626.048.866.191c.241.096.386.287.53.479.145.191.24.43.29.67.047.239.095.478.095.717 0 .24 0 .288-.096.623-.048.334-.144.765-.24 1.243a54.285 54.285 0 00-.29 1.627c-.096.622-.24 1.197-.337 1.819-.096.622-.24 1.244-.337 1.818-.096.574-.192 1.148-.289 1.627-.096.43-.192.909-.289 1.435-.096.526-.24 1.052-.288 1.579-.049.383-.145.24-.193.622-.048.383-.145.765-.193 1.1-.048.335-.096.67-.144.957v1.005c0 .096.048.144.096.144.193 0 .434 0 .77-.096a7.69 7.69 0 001.012-.24l1.155-.286c.386-.096.77-.24 1.108-.335.096 0 .24-.048.482-.096.24-.048.481-.096.818-.191.289-.048.626-.144.963-.192.337-.048.674-.143.963-.191.289-.048.578-.096.819-.144h.481c.097 0 .385 0 .723-.048.337 0 .722-.047 1.203-.047.723 0 1.3.095 1.59.287.336.191.48.478.48.957 0 .478 0 .382-.096.574-.048.191-.144.335-.288.526M11.268 11.962c-.723 0-1.541 0-2.408.143-.867.096-1.734.192-2.552.335.289.287.433.622.433 1.1 0 .48 0 .192-.096.431-.048.24-.145.479-.24.766-.097.287-.145.526-.242.765-.096.24-.144.383-.144.431 0 .096-.096.287-.144.43 0 .192-.097.383-.145.575 0 .191-.096.43-.096.67 0 .239-.048.43-.097.67-.048.287-.096.526-.144.765 0 .24-.048.43-.096.574v.957c.289-.143.674-.287 1.059-.43.385-.144.77-.335 1.204-.479.385-.191.818-.335 1.155-.526.386-.192.723-.335 1.012-.479.144-.095.337-.191.53-.287.192-.096.385-.191.625-.335.193-.095.434-.239.626-.335.193-.095.386-.239.578-.335.434-.287.915-.574 1.396-.956.482-.383.915-.766 1.3-1.149.386-.43.723-.813.964-1.244.24-.43.385-.813.385-1.196s-.24-.335-.722-.479c-.675-.19-1.397-.287-2.12-.334-.721-.048-1.396-.096-1.925-.096m7.849 1.148c0 .144 0 .335-.097.622-.096.287-.192.527-.289.862-.096.287-.24.574-.385.86-.144.288-.289.527-.385.718-.289.431-.722.91-1.3 1.388-.578.478-1.204 1.005-1.974 1.483-.675.479-1.397.91-2.167 1.34-.723.43-1.493.813-2.215 1.196-.867.43-1.782.861-2.697 1.244A31.7 31.7 0 014.96 23.78v1.244c0 .287 0 .574.048.909 0 .335 0-.383.048 0 0 .383 0 .766.048 1.148 0 .383 0 .718.048 1.053v.765c0 .479-.144.814-.433 1.101-.289.287-.722.383-1.204.383-1.348 0-1.974-1.148-1.974-5.646V23.54c0-.383.048-.814.096-1.292.048-.479.096-.957.193-1.483.048-.527.144-1.149.289-1.77.096-.527.144-1.101.24-1.58.097-.526.193-1.005.29-1.483.096-.478.24-.957.385-1.435.144-.479.337-.957.53-1.436-.29.096-.579.192-.916.287-.289.096-.626.24-.963.335-.096 0-.192.096-.289.096H1.06a1.35 1.35 0 01-.866-.287c-.241-.192-.337-.43-.337-.766 0-.335.096-.717.24-1.005.145-.287.386-.526.77-.765.338-.24.771-.43 1.349-.574.53-.192 1.204-.335 1.974-.479.434-.095.915-.191 1.445-.287.53-.095 1.06-.143 1.589-.239.53-.048 1.06-.144 1.54-.191.482 0 .964-.048 1.349-.048h1.396c.482 0 .915 0 1.349.048.433 0 .866.095 1.348.143.433.048.867.144 1.348.24 1.011.239 1.83.621 2.456 1.1.722.574 1.107 1.292 1.107 2.2l.097.192z" fill="#2B2A29"/></g><defs><clipPath id="clip0_2009_5105"><path fill="#fff" d="M0 0h142v40H0z"/></clipPath></defs></svg>