<svg width="10" height="10" fill="none" xmlns="http://www.w3.org/2000/svg"><path fill-rule="evenodd" clip-rule="evenodd" d="M4.688 6.25a.936.936 0 00-.938-.938H1.562a.936.936 0 00-.937.938v2.187a.936.936 0 00.938.938H3.75a.936.936 0 00.938-.938V6.25zm4.687 0a.936.936 0 00-.938-.938H6.25a.936.936 0 00-.938.938v2.187a.936.936 0 00.938.938h2.188a.936.936 0 00.937-.938V6.25zM8.007 4.623L9.31 3.319a.937.937 0 000-1.326L8.007.69a.937.937 0 00-1.326 0L5.377 1.993a.937.937 0 000 1.326l1.304 1.304a.937.937 0 001.326 0zm-3.32-3.06A.936.936 0 003.75.624H1.562a.936.936 0 00-.937.937V3.75a.936.936 0 00.938.937H3.75a.936.936 0 00.938-.937V1.562z" fill="#000"/></svg>