<svg width="663" height="590" fill="none" xmlns="http://www.w3.org/2000/svg"><g clip-path="url(#clip0_280_5538)"><path d="M.202 315.546s3.61 112.064 97.212 186.752c93.601 74.689 223.304 80.039 328.291 87.132 105.002 7.092 185.644-52.316 197.801-142.1 12.158-89.799-68.083-116.165-111.605-218.376-43.538-102.211-39.65-135.824-131.77-198.687C288.026-32.61 143.944 5.998 68.409 113.698-7.14 221.399.202 315.546.202 315.546z" fill="#FFED00"/><path opacity=".7" d="M.202 315.546s3.61 112.064 97.212 186.752c93.601 74.689 223.304 80.039 328.291 87.132 105.002 7.092 185.644-52.316 197.801-142.1 12.158-89.799-68.083-116.165-111.605-218.376-43.538-102.211-39.65-135.824-131.77-198.687C288.026-32.61 143.944 5.998 68.409 113.698-7.14 221.399.202 315.546.202 315.546z" fill="#FEFEFE"/><path d="M42.78 496.485H28.633m587.833 0H65.196" stroke="#2B2A29" stroke-width="1.11" stroke-miterlimit="10"/><path d="M409.057 555.662c25.895 0 46.886-5.771 46.886-12.89 0-7.119-20.991-12.89-46.886-12.89-25.894 0-46.885 5.771-46.885 12.89 0 7.119 20.991 12.89 46.885 12.89z" fill="#2B2A29"/><path d="M166.762 572.053c-48.783 0-55.988-7.047-56.698-12.736-.308-2.467.432-4.657 2.222-6.523 13.144-13.784 88.88-7.956 193.713.124 14.626 1.125 29.745 2.282 45.25 3.438 105.913 7.864 148.556 6.846 157.319-3.793 1.789-2.174 2.175-4.903 1.172-8.557-4.196-15.357-60.277-15.465-81.536-14.232-1.003.046-1.883-.709-1.944-1.727a1.84 1.84 0 011.728-1.942c8.13-.478 79.561-4.056 85.285 16.914 1.327 4.841.71 8.712-1.882 11.857-9.889 11.996-50.372 13.276-160.42 5.119-15.505-1.156-30.64-2.313-45.265-3.438-99.912-7.694-178.825-13.769-190.782-1.234-1.018 1.064-1.404 2.19-1.234 3.546.447 3.624 9.179 11.765 80.24 8.928 39.696-1.588 79.578-5.905 79.979-5.952a1.835 1.835 0 012.021 1.619 1.835 1.835 0 01-1.62 2.02c-.401.046-40.39 4.379-80.21 5.967-10.321.416-19.377.602-27.338.602z" fill="#FEFEFE" stroke="#2B2A29" stroke-width="1.11" stroke-miterlimit="10"/><path d="M404.137 552.64c29.72-6.902 48.216-36.575 41.311-66.278-6.906-29.703-36.597-48.188-66.318-41.287-29.72 6.901-48.216 36.575-41.31 66.278 6.905 29.703 36.596 48.188 66.317 41.287z" fill="#FEFEFE"/><mask id="mask0_280_5538" style="mask-type:luminance" maskUnits="userSpaceOnUse" x="336" y="443" width="111" height="112"><path d="M404.137 552.64c29.72-6.902 48.216-36.575 41.311-66.278-6.906-29.703-36.597-48.188-66.318-41.287-29.72 6.902-48.216 36.575-41.31 66.278 6.905 29.703 36.596 48.188 66.317 41.287z" fill="#fff"/></mask><g mask="url(#mask0_280_5538)"><path d="M391.625 554.09c30.501 0 55.247-24.717 55.247-55.215a54.996 54.996 0 00-9.596-31.1c-.617 24.038-13.916 59.548-82.987 71.775 9.828 9.02 22.941 14.524 37.336 14.524v.016z" fill="#FFED00"/><path opacity=".3" d="M391.625 554.09c30.501 0 55.247-24.717 55.247-55.215a54.996 54.996 0 00-9.596-31.1c-.617 24.038-13.916 59.548-82.987 71.775 9.828 9.02 22.941 14.524 37.336 14.524v.016z" fill="#FEFEFE"/><path d="M418.808 520.523c-16.231-15.866-34.929-20.831-34.929-20.831s18.698 4.95 34.929 20.831zm0 0c.972 0 1.928.046 2.931.046 7.668-7.709 12.975-15.172 16.647-21.679m-19.578 21.633l.015.031c-22.741-.339-40.02-3.839-52.995-8.45.833-34.877 13.284-58.129 19.794-67.966a55.81 55.81 0 0111.833-.077m40.931 54.829c-25.873-27.353-51.113-24.562-51.113-24.562m51.113 24.562a85.688 85.688 0 003.579-7.139c-10.707-15.079-29.236-25.302-39.249-26.874l-2.314-.54m0 0c-6.696-1.049-10.877-.154-10.877-.154s4.166-.895 10.877.154zm0 0l6.588-18.456a53.997 53.997 0 00-9.535-1.82m0 0c-4.258 6.892-15.273 28.91-15.273 72.576 0-43.681 11.015-65.699 15.273-72.576zm33.834 65.222c-22.016-21.432-46.284-22.558-46.284-22.558" stroke="#2B2A29" stroke-width="1.11" stroke-linecap="round" stroke-linejoin="round"/><path d="M365.812 512.073c.833-34.877 13.284-58.113 19.794-67.966a54.762 54.762 0 00-14.826 3.809c-7.05 10.253-18.143 30.622-19.053 57.975 3.995 2.158 8.67 4.255 14.085 6.182z" stroke="#2B2A29" stroke-width="1.11" stroke-linecap="round" stroke-linejoin="round"/><path d="M370.783 447.931c-19.007 7.833-32.677 25.919-34.127 47.367 3.379 3.145 8.254 6.923 15.073 10.608.911-27.338 12.003-47.706 19.054-57.975zm62.45 14.401a55.16 55.16 0 0111.772 21.232 68.049 68.049 0 01-3.04 8.172l.016.015c-15.876-19.905-31.55-25.857-41.563-27.43l6.588-18.456a55.16 55.16 0 0114.594 6.553m11.633 9.914l-4.196 14.247m4.196-14.247a55.953 55.953 0 00-11.633-9.914m0 0l-4.72 17.593" stroke="#2B2A29" stroke-width="1.11" stroke-linecap="round" stroke-linejoin="round"/><path d="M441.967 491.736a68.049 68.049 0 003.04-8.172 55.303 55.303 0 012.221 15.511c0 .802-.031 1.604-.062 2.406h-.03c-23.327 32.657-41.332 46.765-52.502 52.84a55.42 55.42 0 01-2.777.077 55.168 55.168 0 01-16.677-2.559c7.22-3.316 13.746-6.785 19.578-10.331m47.209-49.772c.016.016.031.046.047.062m-.047-.062c-.972 2.205-.925 2.174-2.345 4.718.077.093-1.327 2.328-1.234 2.421-.077-.093-1.466 2.775-1.558 2.683-3.672 6.522-14.734 19.011-14.564 19.011-.185 0-5.986 5.258-9.164 7.91m0 0h.123m-.123 0c-5.246 4.379-11.325 8.758-18.344 13.029m0 0c.139-.031.277-.046.401-.062a3.033 3.033 0 01-.401.062z" stroke="#2B2A29" stroke-width="1.11" stroke-linecap="round" stroke-linejoin="round"/><path d="M447.165 501.481c-23.327 32.672-41.331 46.765-52.501 52.84 28.48-1.403 51.283-24.331 52.501-52.84zm-98.556 32.086c6.773 8.481 15.984 14.926 26.583 18.272 7.22-3.316 13.746-6.769 19.578-10.331-13.176 2.436-33.787-3.608-46.161-7.941zm46.163 7.941c7.019-4.271 13.083-8.65 18.343-13.029-39.773 4.071-64.319-8.234-74.748-15.249a55.285 55.285 0 0010.244 20.337c12.389 4.348 32.985 10.377 46.161 7.941z" stroke="#2B2A29" stroke-width="1.11" stroke-linecap="round" stroke-linejoin="round"/><path d="M418.808 520.523c.988.015 1.944.046 2.932.046a126.307 126.307 0 01-8.64 7.91c-39.773 4.071-64.319-8.249-74.748-15.249a55.628 55.628 0 01-1.836-14.155c0-1.279.061-2.544.138-3.793 3.379 3.146 10.198 10.223 29.159 16.791m52.995 8.45c.216.2.417.401.633.617-.216-.216-.417-.401-.633-.617zm0 0c-22.725-.324-40.02-3.824-52.995-8.45m0 0v0z" stroke="#2B2A29" stroke-width="1.11" stroke-linecap="round" stroke-linejoin="round"/></g><path d="M404.137 552.64c29.72-6.902 48.216-36.575 41.311-66.278-6.906-29.703-36.597-48.188-66.318-41.287-29.72 6.901-48.216 36.575-41.31 66.278 6.905 29.703 36.596 48.188 66.317 41.287z" stroke="#2B2A29" stroke-width="1.11" stroke-linecap="round" stroke-linejoin="round"/><path d="M493.385 404.527s-3.78-12.273-14.796-16.667c-7.652-3.069-16.477-2.267-24.407-.879-14.78 2.575-27.678 8.449-41.702 13.46 0 0 5.987-2.204 30.532 9.745 9.041 4.41 19.378 7.817 29.73 7.586 8.3-.185 21.028-2.544 20.643-13.245zm1.328-36.049s-.077-12.828-9.349-20.229c-6.449-5.135-15.12-6.923-23.111-7.895-14.888-1.804-28.943.093-43.815.848 0 0 6.356-.385 26.412 18.148 7.39 6.831 16.292 13.075 26.258 15.851 8.008 2.22 20.874 3.623 23.59-6.723h.015zm25.377 47.66s-10.012-8.033-10.059-19.891c-.03-8.233 3.965-16.128 8.177-22.989 7.838-12.782 18.066-22.604 27.894-33.767 0 0-4.258 4.749-2.191 31.963.756 10.022.124 20.893-3.903 30.406-3.24 7.648-10.121 18.595-19.933 14.293l.015-.015zm35.486 19.72s-1.42-12.751 6.942-21.17c5.801-5.843 14.209-8.619 22.047-10.5 14.579-3.515 28.757-3.253 43.614-4.209 0 0-6.356.354-24.129 21.077-6.541 7.633-14.672 14.879-24.253 18.78-7.698 3.13-20.318 6.014-24.206-3.962l-.015-.016z" fill="#FFED00"/><path d="M553.245 390.373s-12.728-1.742-18.853-11.903c-4.258-7.062-4.89-15.882-4.798-23.93.154-14.987 3.873-28.664 6.572-43.296 0 0-1.203 6.26 14.549 28.54 5.801 8.203 10.846 17.855 12.281 28.093 1.157 8.218.864 21.154-9.766 22.496h.015zm36.612-22.835s9.149 9.004 20.936 7.663c8.192-.941 15.567-5.828 21.892-10.809 11.787-9.282 20.35-20.568 30.301-31.624 0 0-4.212 4.78-31.504 5.906-10.044.416-20.766 2.313-29.761 7.416-7.22 4.102-17.294 12.227-11.864 21.448z" fill="#FFED00"/><path d="M579.274 358.641s12.774 1.28 21.12-7.154c5.801-5.859 8.486-14.293 10.291-22.142 3.363-14.617 2.962-28.771 3.764-43.635 0 0-.293 6.368-20.843 24.331-7.575 6.615-14.733 14.817-18.529 24.423-3.055 7.725-5.816 20.369 4.212 24.146l-.015.031z" fill="#FFED00"/><path d="M533.635 482.932l-22.046-54.259-25.456-62.723m52.594 107.654l22.061-75.445 23.744-46.626m-37.321 92.405l22.062-12.721m-8.484-33.058l-11.031-24.593m24.824.124l26.922-11.981m-85.672 77.141l9.334-37.298m-21.707 8.942l-21.568-11.487" stroke="#2B2A29" stroke-width="1.11" stroke-linecap="round" stroke-linejoin="round"/><path d="M544.961 510.069h-18.39a12.909 12.909 0 01-12.682-10.5l-6.526-34.43H564.2l-6.526 34.43a12.909 12.909 0 01-12.682 10.5h-.031z" fill="#2B2A29" stroke="#2B2A29" stroke-width="1.11" stroke-linecap="round" stroke-linejoin="round"/><path d="M293.47 437.508c-34.358 0-54.985-30.452-62.314-57.234l-.246-.941c-1.404-5.381 1.836-10.886 7.22-12.289 5.384-1.387 10.892 1.835 12.296 7.216l.185.694c5.585 20.384 20.751 43.682 45.065 42.34 9.704-.539 17.511-4.363 23.882-11.656 13.346-15.28 19.316-48.554 17.989-65.33-.354-4.44 2.963-8.326 7.406-8.681a8.053 8.053 0 018.686 7.401c1.481 18.657-.494 58.808-18.869 79.854-9.981 11.426-22.756 17.67-37.937 18.518a60.613 60.613 0 01-3.332.093l-.031.015z" fill="#FEFEFE"/><mask id="mask1_280_5538" style="mask-type:luminance" maskUnits="userSpaceOnUse" x="230" y="331" width="125" height="107"><path d="M293.47 437.508c-34.358 0-54.985-30.452-62.314-57.234l-.246-.941c-1.404-5.381 1.836-10.886 7.22-12.289 5.384-1.387 10.892 1.835 12.296 7.216l.185.694c5.585 20.384 20.751 43.682 45.065 42.34 9.704-.539 17.511-4.363 23.882-11.656 13.346-15.28 19.316-48.554 17.989-65.33-.354-4.44 2.963-8.326 7.406-8.681a8.053 8.053 0 018.686 7.401c1.481 18.657-.494 58.808-18.869 79.854-9.981 11.426-22.756 17.67-37.937 18.518a60.613 60.613 0 01-3.332.093l-.031.015z" fill="#fff"/></mask><g mask="url(#mask1_280_5538)"><path d="M344.936 331.643c-4.444.354-7.761 4.24-7.406 8.681.648 8.187-.447 20.291-3.286 32.333 3.487-.17 7.483.216 11.988 1.557-.648 8.234-3.24 20.337-11.772 32.179-14.98 20.8-37.459 27.446-54.939 24.963-7.806-1.11-16.785-5.227-24.33-9.421 9.967 9.329 22.71 15.589 38.277 15.589 1.095 0 2.206-.031 3.333-.093 15.196-.848 27.955-7.093 37.937-18.518 18.374-21.047 20.349-61.197 18.868-79.854a8.053 8.053 0 00-8.686-7.401l.016-.015z" fill="#FFED00"/><path opacity=".5" d="M344.936 331.643c-4.444.354-7.761 4.24-7.406 8.681.648 8.187-.447 20.291-3.286 32.333 3.487-.17 7.483.216 11.988 1.557-.648 8.234-3.24 20.337-11.772 32.179-14.98 20.8-37.459 27.446-54.939 24.963-7.806-1.11-16.785-5.227-24.33-9.421 9.967 9.329 22.71 15.589 38.277 15.589 1.095 0 2.206-.031 3.333-.093 15.196-.848 27.955-7.093 37.937-18.518 18.374-21.047 20.349-61.197 18.868-79.854a8.053 8.053 0 00-8.686-7.401l.016-.015z" fill="#FEFEFE"/></g><path d="M293.47 437.508c-34.358 0-54.985-30.452-62.314-57.234l-.246-.941c-1.404-5.381 1.836-10.886 7.22-12.289 5.384-1.387 10.892 1.835 12.296 7.216l.185.694c5.585 20.384 20.751 43.682 45.065 42.34 9.704-.539 17.511-4.363 23.882-11.656 13.346-15.28 19.316-48.554 17.989-65.33-.354-4.44 2.963-8.326 7.406-8.681a8.053 8.053 0 018.686 7.401c1.481 18.657-.494 58.808-18.869 79.854-9.981 11.426-22.756 17.67-37.937 18.518a60.613 60.613 0 01-3.332.093l-.031.015z" stroke="#2B2A29" stroke-width="1.11" stroke-linecap="round" stroke-linejoin="round"/><path d="M273.661 416.647c.803-3.778-8.238 2.143-15.798 7.632a60.722 60.722 0 009.01 6.275c2.7-4.379 6.002-10.253 6.788-13.907zm19.808 20.861a58.45 58.45 0 0013.067-1.465c-4.258-5.55-10.105-12.874-11.802-13.445-1.929-.647-5.647 8.804-7.699 14.54 2.083.247 4.227.37 6.434.37zm-42.858-62.554l-.185-.694c-1.404-5.381-6.896-8.603-12.296-7.216-5.384 1.403-8.624 6.908-7.22 12.289l.246.941c2.438 8.896 6.341 18.178 11.726 26.643l18.374-8.742c-4.937-7.124-8.5-15.373-10.645-23.205v-.016zm84.142 43.944c1.404-1.604 2.7-3.346 3.919-5.15-5.832-1.989-14.564-4.734-17.804-4.441-3.842.355 1.373 12.69 4.073 18.518 3.518-2.498 6.804-5.474 9.812-8.927zm.31-32.935c-.617 1.218 6.927 6.723 12.018 10.254 1.62-4.765 2.901-9.714 3.888-14.679-6.171 1.233-15.304 3.223-15.921 4.425h.015zm18.42-22.82c.34-4.394.51-8.588.525-12.458-5.307 2.93-11.602 6.954-11.602 9.606s5.894 2.976 11.077 2.837v.015z" fill="#FFED00" stroke="#2B2A29" stroke-width="1.11" stroke-linecap="round" stroke-linejoin="round"/><path d="M270.419 243.848s-14.98 43.358-6.912 77.125c8.069 33.767 37.629 44.884 37.629 44.884s-21.877 7.679-16.893 19.566c4.983 11.888 23.805 4.225 29.945.386 6.14-3.839 13.824-15.342 14.965-23.02 1.157-7.679.772-11.888.772-11.888s24.947-2.683 41.84-16.498c0 0 14.965 11.888 25.719 9.59 10.753-2.297 26.104-21.494 24.576-38.747-1.542-17.269-11.524-17.269-17.665-14.586-6.14 2.682-8.439 5.365-8.439 5.365s8.825-10.747 0-25.703-24.576-16.112-24.576-16.112-4.613-24.563-18.421-33.768c-13.824-9.205-62.962-18.795-82.54 23.406z" fill="#FEFEFE"/><mask id="mask2_280_5538" style="mask-type:luminance" maskUnits="userSpaceOnUse" x="261" y="212" width="162" height="180"><path d="M270.419 243.848s-14.98 43.358-6.912 77.125c8.069 33.767 37.629 44.884 37.629 44.884s-21.877 7.679-16.893 19.566c4.983 11.888 23.805 4.225 29.945.386 6.14-3.839 13.824-15.342 14.965-23.02 1.157-7.679.772-11.888.772-11.888s24.947-2.683 41.84-16.498c0 0 14.965 11.888 25.719 9.59 10.753-2.297 26.104-21.494 24.576-38.747-1.542-17.269-11.524-17.269-17.665-14.586-6.14 2.682-8.439 5.365-8.439 5.365s8.825-10.747 0-25.703-24.576-16.112-24.576-16.112-4.613-24.563-18.421-33.768c-13.824-9.205-62.962-18.795-82.54 23.406z" fill="#fff"/></mask><g mask="url(#mask2_280_5538)"><path d="M384.477 258.774c-10.877 18.101-32.939 38.932-67.667 41.969-30.548 2.683-47.673-3.33-55.572-7.508 1.065-25.873 9.164-49.371 9.164-49.371 19.579-42.202 68.716-32.611 82.54-23.406 13.823 9.205 18.421 33.767 18.421 33.767s6.264.463 13.098 4.549h.016zm19.917 31.886c-6.14 2.682-8.439 5.365-8.439 5.365s2.669-3.268 3.595-8.696c-20.751 10.315-19.131 32.41-21.723 32.41-3.163 0-4.752-11.086-4.752-11.086s-3.965 15.835-27.739 26.937c-23.775 11.101-50.727 2.374-50.727 2.374s5.554 12.675-8.717 11.087c-4.813-.54-8.439-2.159-11.154-4.071 11.524 15.28 26.366 20.892 26.366 20.892s-21.877 7.679-16.894 19.567c4.984 11.888 23.806 4.225 29.946.385 6.14-3.839 13.824-15.341 14.965-23.02 1.157-7.678.772-11.888.772-11.888s24.962-2.683 41.84-16.498c0 0 14.965 11.888 25.718 9.591 10.754-2.298 26.105-21.494 24.577-38.748-1.543-17.269-11.524-17.269-17.665-14.586l.031-.015z" fill="#FFED00"/><path opacity=".5" d="M384.477 258.774c-10.877 18.101-32.939 38.932-67.667 41.969-30.548 2.683-47.673-3.33-55.572-7.508 1.065-25.873 9.164-49.371 9.164-49.371 19.579-42.202 68.716-32.611 82.54-23.406 13.823 9.205 18.421 33.767 18.421 33.767s6.264.463 13.098 4.549h.016zm19.917 31.886c-6.14 2.682-8.439 5.365-8.439 5.365s2.669-3.268 3.595-8.696c-20.751 10.315-19.131 32.41-21.723 32.41-3.163 0-4.752-11.086-4.752-11.086s-3.965 15.835-27.739 26.937c-23.775 11.101-50.727 2.374-50.727 2.374s5.554 12.675-8.717 11.087c-4.813-.54-8.439-2.159-11.154-4.071 11.524 15.28 26.366 20.892 26.366 20.892s-21.877 7.679-16.894 19.567c4.984 11.888 23.806 4.225 29.946.385 6.14-3.839 13.824-15.341 14.965-23.02 1.157-7.678.772-11.888.772-11.888s24.962-2.683 41.84-16.498c0 0 14.965 11.888 25.718 9.591 10.754-2.298 26.105-21.494 24.577-38.748-1.543-17.269-11.524-17.269-17.665-14.586l.031-.015z" fill="#FEFEFE"/><path d="M329.922 350.901s-25.564 2.081-43.43-19.906" stroke="#2B2A29" stroke-width="1.11" stroke-linecap="round" stroke-linejoin="round"/></g><path d="M270.419 243.848s-14.98 43.358-6.912 77.125c8.069 33.767 37.629 44.884 37.629 44.884s-21.877 7.679-16.893 19.566c4.983 11.888 23.805 4.225 29.945.386 6.14-3.839 13.824-15.342 14.965-23.02 1.157-7.679.772-11.888.772-11.888s24.947-2.683 41.84-16.498c0 0 14.965 11.888 25.719 9.59 10.753-2.297 26.104-21.494 24.576-38.747-1.542-17.269-11.524-17.269-17.665-14.586-6.14 2.682-8.439 5.365-8.439 5.365s8.825-10.747 0-25.703-24.576-16.112-24.576-16.112-4.613-24.563-18.421-33.768c-13.824-9.205-62.962-18.795-82.54 23.406zm125.538 52.193s-8.068 5.366-11.895 21.864" stroke="#2B2A29" stroke-width="1.11" stroke-linecap="round" stroke-linejoin="round"/><path d="M410.75 303.087c-.941 2.806-3.517 4.487-5.739 3.732-2.222-.756-3.255-3.639-2.299-6.446.941-2.806 3.518-4.486 5.739-3.731 2.222.756 3.256 3.639 2.299 6.445zm7.946 4.996c-.942 2.806-3.518 4.487-5.74 3.731-2.221-.755-3.255-3.639-2.298-6.445.941-2.806 3.517-4.487 5.739-3.731 2.221.755 3.255 3.639 2.299 6.445z" fill="#FEFEFE" stroke="#2B2A29" stroke-width="1.11" stroke-linecap="round" stroke-linejoin="round"/><path d="M420.393 315.561c-.694 2.035-2.561 3.253-4.166 2.714-1.619-.54-2.36-2.637-1.666-4.688.694-2.035 2.561-3.253 4.166-2.713 1.62.539 2.36 2.636 1.666 4.687zm-10.136 10.269c-2.777 5.011-8.331 7.231-12.404 4.965-4.073-2.267-5.137-8.141-2.36-13.153 2.777-5.011 8.331-7.231 12.404-4.964 4.073 2.266 5.137 8.141 2.36 13.152z" fill="#FEFEFE" stroke="#2B2A29" stroke-width="1.11" stroke-linecap="round" stroke-linejoin="round"/><path d="M301.121 365.872s6.912 3.84 16.508 1.157m-33.402 18.41s1.542-6.522 11.139-11.132m-1.526 16.883s3.841-9.205 10.367-13.43" stroke="#2B2A29" stroke-width="1.11" stroke-linecap="round" stroke-linejoin="round"/><path d="M373.758 254.117c-15.243 21.556-36.919 32.318-65.014 32.318-28.094 0-49.77-10.778-65.013-32.318-15.474-21.771-23.204-50.496-23.204-86.191 0-35.694 7.73-64.435 23.204-86.191 15.243-21.555 36.919-32.318 65.013-32.318 28.095 0 49.771 10.778 65.014 32.318 15.458 21.771 23.203 50.497 23.203 86.191 0 35.695-7.729 64.435-23.203 86.191zM250.92 167.926c0 28.294 5.014 50.173 15.027 65.622 10.013 15.465 24.284 23.175 42.797 23.175 18.514 0 32.831-7.725 42.967-23.175 10.121-15.449 15.197-37.328 15.197-65.622 0-28.293-5.061-50.219-15.197-65.792-10.121-15.558-24.453-23.344-42.967-23.344-18.513 0-32.784 7.725-42.797 23.174-10.028 15.466-15.027 37.437-15.027 65.947v.015zm-82.849 42.433h27.771v28.401h-27.771v43.419h-30.377V238.76H21.059v-28.401l81.999-156.717h32.676L53.735 210.359h83.959v-64.651h30.377v64.651zm401.079 0h27.77v28.401h-27.77v43.419h-30.378V238.76H422.137v-28.401l81.999-156.717h32.677l-82 156.717h83.959v-64.651h30.378v64.651z" fill="#2B2A29" stroke="#2B2A29" stroke-width="1.11" stroke-linecap="round" stroke-linejoin="round"/><path d="M239.32 221.984s-16.123 22.635-18.421 45.655c-2.299 23.021.385 38.362 7.297 44.129 6.912 5.751 13.823 3.454 17.665-1.912 3.842-5.366-2.299-24.177-2.299-24.177s6.526-18.04 16.508-30.698c9.982-12.659 11.895-14.587 11.895-14.587s-17.279-19.566-32.63-18.41h-.015z" fill="#FEFEFE"/><mask id="mask3_280_5538" style="mask-type:luminance" maskUnits="userSpaceOnUse" x="220" y="221" width="52" height="95"><path d="M239.32 221.984s-16.123 22.635-18.421 45.655c-2.299 23.021.385 38.362 7.297 44.129 6.912 5.751 13.823 3.454 17.665-1.912 3.842-5.366-2.299-24.177-2.299-24.177s6.526-18.04 16.508-30.698c9.982-12.659 11.895-14.587 11.895-14.587s-17.279-19.566-32.63-18.41h-.015z" fill="#fff"/></mask><g mask="url(#mask3_280_5538)"><path d="M239.321 221.984s-4.705 6.615-9.395 16.313c7.698 3.1 19.67 9.421 27.261 20.6a81.765 81.765 0 012.87-3.916c9.981-12.659 11.894-14.587 11.894-14.587s-17.279-19.566-32.63-18.41z" fill="#FFED00"/><path opacity=".5" d="M239.321 221.984s-4.705 6.615-9.395 16.313c7.698 3.1 19.67 9.421 27.261 20.6a81.765 81.765 0 012.87-3.916c9.981-12.659 11.894-14.587 11.894-14.587s-17.279-19.566-32.63-18.41z" fill="#FEFEFE"/></g><path d="M239.32 221.984s-16.123 22.635-18.421 45.655c-2.299 23.021.385 38.362 7.297 44.129 6.912 5.751 13.823 3.454 17.665-1.912 3.842-5.366-2.299-24.177-2.299-24.177s6.526-18.04 16.508-30.698c9.982-12.659 11.895-14.587 11.895-14.587s-17.279-19.566-32.63-18.41h-.015zm-11.139 89.784s-2.685-6.137-2.685-15.727m13.052 18.024s-3.842-6.522-4.228-17.654" stroke="#2B2A29" stroke-width="1.11" stroke-linecap="round" stroke-linejoin="round"/><path d="M244.301 263.029c0-4.04-7.714-11.934-18.436-15.357-1.389 3.654-2.623 7.54-3.549 11.502 2.901.556 8.085 1.758 12.003 3.855 5.755 3.068 9.982 4.61 9.982 0zm-5.923-39.672c-1.342 2.019-3.981 6.167-6.819 11.656a36.697 36.697 0 019.287 3.855c11.895 6.908 14.209 7.678 10.368-2.297-2.392-6.214-7.899-10.485-12.836-13.199v-.015z" fill="#FFED00" stroke="#2B2A29" stroke-width="1.11" stroke-linecap="round" stroke-linejoin="round"/><path d="M365.597 210.806s18.266 20.954 22.818 43.635c4.551 22.681 3.378 38.223-2.932 44.622-6.31 6.399-13.422 4.795-17.757-.185-4.351-4.965-.077-24.285-.077-24.285s-8.27-17.3-19.44-28.925c-11.169-11.626-13.268-13.338-13.268-13.338s15.274-21.17 30.671-21.524h-.015z" fill="#FEFEFE"/><mask id="mask4_280_5538" style="mask-type:luminance" maskUnits="userSpaceOnUse" x="334" y="210" width="58" height="94"><path d="M365.597 210.806s18.266 20.954 22.818 43.635c4.551 22.681 3.378 38.223-2.932 44.622-6.31 6.399-13.422 4.795-17.757-.185-4.351-4.965-.077-24.285-.077-24.285s-8.27-17.3-19.44-28.925c-11.169-11.626-13.268-13.338-13.268-13.338s15.274-21.17 30.671-21.524h-.015z" fill="#fff"/></mask><g mask="url(#mask4_280_5538)"><path d="M365.597 210.805c-15.398.355-30.671 21.525-30.671 21.525s2.098 1.727 13.268 13.337c2.083 2.159 4.057 4.518 5.909 6.939 3.903-6.522 11.602-16.776 24.16-23.591-6.202-10.793-12.666-18.225-12.666-18.225v.015z" fill="#FFED00"/><path opacity=".5" d="M365.597 210.805c-15.398.355-30.671 21.525-30.671 21.525s2.098 1.727 13.268 13.337c2.083 2.159 4.057 4.518 5.909 6.939 3.903-6.522 11.602-16.776 24.16-23.591-6.202-10.793-12.666-18.225-12.666-18.225v.015z" fill="#FEFEFE"/></g><path d="M365.597 210.806s18.266 20.954 22.818 43.635c4.551 22.681 3.378 38.223-2.932 44.622-6.31 6.399-13.422 4.795-17.757-.185-4.351-4.965-.077-24.285-.077-24.285s-8.27-17.3-19.44-28.925c-11.169-11.626-13.268-13.338-13.268-13.338s15.274-21.17 30.671-21.524h-.015zm19.887 88.257s2.068-6.368 1.127-15.912m-11.216 19.227s3.178-6.861 2.468-17.978" stroke="#2B2A29" stroke-width="1.11" stroke-linecap="round" stroke-linejoin="round"/><path d="M364.653 252.159c-.401-4.024 6.495-12.643 16.848-17.084 1.743 3.5 3.363 7.247 4.659 11.101-2.823.833-7.868 2.529-11.571 5.012-5.431 3.623-9.488 5.566-9.936.971zm2.007-40.074c1.543 1.882 4.566 5.752 7.93 10.932-2.746 1.018-5.755 2.514-8.856 4.749-11.17 8.034-13.376 9.036-10.537-1.279 1.774-6.415 6.834-11.21 11.478-14.402h-.015z" fill="#FFED00" stroke="#2B2A29" stroke-width="1.11" stroke-linecap="round" stroke-linejoin="round"/><path d="M237.806 202.402s-4.752 16.021-2.962 22.558c1.774 6.522 10.09.586 18.405 7.71 8.316 7.123 16.014 19.936 47.503 22.311 31.473 2.374 50.495-14.587 57.021-24.085 6.527-9.498 5.94-20.769 17.218-21.37 11.278-.586 1.774-22.558-1.774-26.119 0 0 21.969-32.642 21.969-40.953s-20.781-6.522-46.33 1.187c0 0-19.007-10.083-53.458-4.147-34.45 5.936-44.54 16.02-44.54 16.02s-42.766 5.335-45.728 10.685c-2.963 5.335 5.939 27.893 32.66 36.203h.016z" fill="#FEFEFE"/><mask id="mask5_280_5538" style="mask-type:luminance" maskUnits="userSpaceOnUse" x="204" y="136" width="192" height="120"><path d="M237.806 202.402s-4.752 16.021-2.962 22.558c1.774 6.522 10.09.586 18.405 7.71 8.316 7.123 16.014 19.936 47.503 22.311 31.473 2.374 50.495-14.587 57.021-24.085 6.527-9.498 5.94-20.769 17.218-21.37 11.278-.586 1.774-22.558-1.774-26.119 0 0 21.969-32.642 21.969-40.953s-20.781-6.522-46.33 1.187c0 0-19.007-10.083-53.458-4.147-34.45 5.936-44.54 16.02-44.54 16.02s-42.766 5.335-45.728 10.685c-2.963 5.335 5.939 27.893 32.66 36.203h.016z" fill="#fff"/></mask><g mask="url(#mask5_280_5538)"><path d="M374.991 209.526c11.278-.586 1.775-22.558-1.774-26.119 0 0 4.181-6.214 8.887-13.893-12.775-6.661-25.302-10.361-28.634-6.614-7.159 8.048-3.256 23.467 0 38.469 3.255 15.003-9.782 21.51-18.915 34.554s-22.185-1.311-22.185-1.311c-4.567 18.904-24.13 6.522-24.13 6.522-15.011-4.563-40.452-19.566-35.222-29.989 5.215-10.439 6.526-20.214-2.607-28.679-9.133-8.48-45.559-15.511-45.559-15.511-1.913 6.429 7.329 27.491 32.954 35.463 0 0-4.751 16.02-2.962 22.558 1.774 6.522 10.09.586 18.406 7.709 8.315 7.123 16.014 19.936 47.502 22.311 31.473 2.374 50.496-14.586 57.022-24.084 6.526-9.498 5.94-20.769 17.217-21.371v-.015z" fill="#FFED00"/><path opacity=".5" d="M374.991 209.526c11.278-.586 1.775-22.558-1.774-26.119 0 0 4.181-6.214 8.887-13.893-12.775-6.661-25.302-10.361-28.634-6.614-7.159 8.048-3.256 23.467 0 38.469 3.255 15.003-9.782 21.51-18.915 34.554s-22.185-1.311-22.185-1.311c-4.567 18.904-24.13 6.522-24.13 6.522-15.011-4.563-40.452-19.566-35.222-29.989 5.215-10.439 6.526-20.214-2.607-28.679-9.133-8.48-45.559-15.511-45.559-15.511-1.913 6.429 7.329 27.491 32.954 35.463 0 0-4.751 16.02-2.962 22.558 1.774 6.522 10.09.586 18.406 7.709 8.315 7.123 16.014 19.936 47.502 22.311 31.473 2.374 50.496-14.586 57.022-24.084 6.526-9.498 5.94-20.769 17.217-21.371v-.015z" fill="#FEFEFE"/><path d="M328.555 213.119c.432 3.762-7.915 7.817-18.653 9.066-10.738 1.249-19.794-.787-20.226-4.549-.432-3.762 7.915-7.817 18.653-9.066 10.737-1.249 19.794.786 20.226 4.533v.016z" fill="#FFED00"/><path opacity=".5" d="M328.555 213.119c.432 3.762-7.915 7.817-18.653 9.066-10.738 1.249-19.794-.787-20.226-4.549-.432-3.762 7.915-7.817 18.653-9.066 10.737-1.249 19.794.786 20.226 4.533v.016z" fill="#FEFEFE"/></g><path d="M237.806 202.402s-4.752 16.021-2.962 22.558c1.774 6.522 10.09.586 18.405 7.71 8.316 7.123 16.014 19.936 47.503 22.311 31.473 2.374 50.495-14.587 57.021-24.085 6.527-9.498 5.94-20.769 17.218-21.37 11.278-.586 1.774-22.558-1.774-26.119 0 0 21.969-32.642 21.969-40.953s-20.781-6.522-46.33 1.187c0 0-19.007-10.083-53.458-4.147-34.45 5.936-44.54 16.02-44.54 16.02s-42.766 5.335-45.728 10.685c-2.963 5.335 5.939 27.893 32.66 36.203h.016z" stroke="#2B2A29" stroke-width="1.11" stroke-miterlimit="10"/><path d="M360.628 154.836c-15.351 10.361-9.982 20.722-3.07 26.474 4.212 3.515 11 3.022 15.659 2.097 0 0 21.97-32.642 21.97-40.953 0 0-19.193 2.02-34.559 12.382zm-155.776 12.103c-1.913 6.43 7.329 27.492 32.954 35.463 0 0 19.563-1.911 13.037-17.639-6.094-14.678-36.904-18.333-45.991-17.824zm90.562-27.461a192.8 192.8 0 00-5.832 1.095c3.07 15.573 8.161 41.508 12.697 41.508s8.007-28.433 9.488-44.36c-4.983.2-10.429.74-16.353 1.757zm-17.712 37.992c4.721-2.775 4.011-23.637 3.271-34.954-5.74 1.449-10.476 2.991-14.379 4.487 1.728 10.592 6.078 33.428 11.108 30.467zm45.699-9.59c4.845 1.696 7.544-15.65 9.072-29.003-4.166-.678-9.087-1.187-14.749-1.249-.155 10.978.447 28.432 5.677 30.252z" fill="#FFED00" stroke="#2B2A29" stroke-width="1.11" stroke-miterlimit="10"/><path d="M316.935 227.936c-2.607-.632-8.207-1.419-13.376 1.634a1.338 1.338 0 00-.247 2.128l8.208 7.679a1.316 1.316 0 002.098-.417l4.197-9.205c.339-.74-.077-1.634-.864-1.819h-.016z" fill="#FFED00" stroke="#2B2A29" stroke-width="1.11" stroke-linecap="round" stroke-linejoin="round"/><path d="M297.465 215.061c1.126 2.976.679 5.906-1.003 6.538-1.682.647-3.965-1.249-5.107-4.209-1.126-2.976-.678-5.906 1.003-6.538 1.682-.648 3.965 1.249 5.107 4.209zm22.34-2.127c-.586 3.13.371 5.92 2.145 6.26 1.774.339 3.687-1.928 4.273-5.058.587-3.13-.37-5.921-2.144-6.26-1.774-.339-3.688 1.927-4.274 5.058z" fill="#2B2A29"/><path d="M313.619 238.96s-10.954 14.864-20.935-.092m18.82.509s7.282 7.54 14.95 3.33c7.667-4.209 3.07-10.747 3.07-10.747" stroke="#2B2A29" stroke-width="1.11" stroke-linecap="round" stroke-linejoin="round"/><path d="M278.086 203.173s2.684-9.59 15.351-7.293m23.051-1.526s9.596-5.751 18.421 3.454" stroke="#2B2A29" stroke-width="3.34" stroke-linecap="round" stroke-linejoin="round"/><path d="M270.789 228.892l9.226 2.297m-1.157 3.454l-8.069 1.542m9.614 2.683l-5.77 3.068m64.117-17.269l8.069-1.912m-6.526 5.751h5.369m-4.228 3.84l7.297 1.912" stroke="#2B2A29" stroke-width="1.11" stroke-miterlimit="10" stroke-linecap="round"/></g><defs><clipPath id="clip0_280_5538"><path fill="#fff" d="M0 0h663v590H0z"/></clipPath></defs></svg>