<svg width="18" height="21" fill="none" xmlns="http://www.w3.org/2000/svg"><path d="M8.55 10.134c1.324 0 2.47-.475 3.406-1.411.937-.937 1.411-2.082 1.411-3.406 0-1.323-.474-2.47-1.41-3.406C11.018.975 9.873.5 8.55.5S6.08.975 5.144 1.911c-.936.937-1.411 2.083-1.411 3.406 0 1.324.475 2.47 1.411 3.406.937.936 2.083 1.411 3.406 1.411zM5.973 2.74c.719-.719 1.562-1.068 2.577-1.068 1.016 0 1.859.35 2.577 1.068.719.719 1.068 1.562 1.068 2.577s-.349 1.858-1.068 2.577c-.718.719-1.561 1.068-2.577 1.068-1.015 0-1.858-.35-2.577-1.068-.719-.718-1.068-1.561-1.068-2.577 0-1.015.35-1.858 1.068-2.577zM16.98 15.879a11.87 11.87 0 00-.162-1.264 9.926 9.926 0 00-.31-1.27 6.278 6.278 0 00-.523-1.185 4.468 4.468 0 00-.788-1.027 3.473 3.473 0 00-1.131-.71 3.91 3.91 0 00-1.445-.262c-.204 0-.401.084-.783.332-.27.176-.543.352-.815.526-.262.167-.617.323-1.055.465a4.19 4.19 0 01-1.291.208c-.429 0-.863-.07-1.291-.208-.438-.142-.793-.298-1.054-.465-.304-.194-.579-.371-.817-.526-.38-.248-.578-.332-.782-.332-.52 0-1.006.088-1.445.261a3.47 3.47 0 00-1.131.711c-.298.285-.562.63-.788 1.027a6.29 6.29 0 00-.522 1.185c-.125.39-.23.818-.31 1.27-.081.449-.136.874-.163 1.264-.026.382-.04.78-.04 1.182 0 1.044.332 1.889.987 2.512.646.615 1.501.927 2.541.927h9.63c1.04 0 1.895-.312 2.542-.927.655-.623.986-1.468.986-2.513 0-.403-.013-.8-.04-1.181zm-1.754 2.845c-.427.406-.994.604-1.734.604h-9.63c-.74 0-1.306-.198-1.733-.604-.419-.399-.623-.943-.623-1.663 0-.375.013-.745.038-1.1.024-.349.073-.732.146-1.139.072-.401.164-.778.273-1.12a5.12 5.12 0 01.425-.963 3.31 3.31 0 01.58-.759c.2-.192.453-.35.752-.468.276-.11.586-.169.923-.178.04.022.114.064.232.14.241.158.519.337.826.533.346.22.792.42 1.325.592.544.176 1.1.265 1.651.265.551 0 1.107-.09 1.651-.265.533-.172.979-.371 1.325-.592.315-.201.585-.375.825-.532.119-.077.192-.12.233-.141.337.009.647.069.923.178.299.118.552.276.753.468.215.206.41.46.579.759.177.312.32.636.425.963.11.342.201.719.273 1.12.073.408.123.79.147 1.139.025.354.037.724.037 1.1 0 .72-.203 1.264-.622 1.663z" fill="#2B2A29"/></svg>