<svg width="10" height="10" viewBox="0 0 10 10" fill="none" xmlns="http://www.w3.org/2000/svg">
<path fill-rule="evenodd" clip-rule="evenodd" d="M4.6875 6.24996C4.6875 6.00121 4.58875 5.76277 4.41281 5.58715C4.32582 5.50003 4.2225 5.43093 4.10876 5.38379C3.99503 5.33666 3.87311 5.31242 3.75 5.31246H1.5625C1.31375 5.31246 1.07531 5.41121 0.899688 5.58715C0.812571 5.67414 0.743468 5.77746 0.696333 5.8912C0.649198 6.00493 0.624958 6.12685 0.625 6.24996V8.43746C0.625 8.68621 0.72375 8.92465 0.899688 9.10027C0.986681 9.18739 1.09 9.25649 1.20374 9.30363C1.31747 9.35076 1.43939 9.375 1.5625 9.37496H3.75C3.99875 9.37496 4.23719 9.27621 4.41281 9.10027C4.49993 9.01328 4.56903 8.90996 4.61617 8.79622C4.6633 8.68249 4.68754 8.56058 4.6875 8.43746V6.24996ZM9.375 6.24996C9.375 6.00121 9.27625 5.76277 9.10031 5.58715C9.01332 5.50003 8.91 5.43093 8.79626 5.38379C8.68253 5.33666 8.56061 5.31242 8.4375 5.31246H6.25C6.00125 5.31246 5.76281 5.41121 5.58719 5.58715C5.50007 5.67414 5.43097 5.77746 5.38383 5.8912C5.3367 6.00493 5.31246 6.12685 5.3125 6.24996V8.43746C5.3125 8.68621 5.41125 8.92465 5.58719 9.10027C5.67418 9.18739 5.7775 9.25649 5.89124 9.30363C6.00497 9.35076 6.12689 9.375 6.25 9.37496H8.4375C8.68625 9.37496 8.92469 9.27621 9.10031 9.10027C9.18743 9.01328 9.25653 8.90996 9.30367 8.79622C9.3508 8.68249 9.37504 8.56058 9.375 8.43746V6.24996ZM8.00656 4.62277L9.31031 3.31902C9.48607 3.14322 9.5848 2.9048 9.5848 2.65621C9.5848 2.40762 9.48607 2.16921 9.31031 1.9934L8.00656 0.689648C7.83076 0.513894 7.59234 0.415161 7.34375 0.415161C7.09516 0.415161 6.85674 0.513894 6.68094 0.689648L5.37719 1.9934C5.20143 2.16921 5.1027 2.40762 5.1027 2.65621C5.1027 2.9048 5.20143 3.14322 5.37719 3.31902L6.68094 4.62277C6.85674 4.79853 7.09516 4.89726 7.34375 4.89726C7.59234 4.89726 7.83076 4.79853 8.00656 4.62277ZM4.6875 1.56246C4.6875 1.31371 4.58875 1.07527 4.41281 0.899648C4.32582 0.812532 4.2225 0.743429 4.10876 0.696294C3.99503 0.649159 3.87311 0.624919 3.75 0.624961H1.5625C1.31375 0.624961 1.07531 0.723711 0.899688 0.899648C0.812571 0.986642 0.743468 1.08996 0.696333 1.2037C0.649198 1.31743 0.624958 1.43935 0.625 1.56246V3.74996C0.625 3.99871 0.72375 4.23715 0.899688 4.41277C0.986681 4.49989 1.09 4.56899 1.20374 4.61613C1.31747 4.66326 1.43939 4.6875 1.5625 4.68746H3.75C3.99875 4.68746 4.23719 4.58871 4.41281 4.41277C4.49993 4.32578 4.56903 4.22246 4.61617 4.10872C4.6633 3.99499 4.68754 3.87308 4.6875 3.74996V1.56246Z" fill="black"/>
</svg>
