<svg width="663" height="590" viewBox="0 0 663 590" fill="none" xmlns="http://www.w3.org/2000/svg">
<g clip-path="url(#clip0_280_5538)">
<path d="M0.20236 315.546C0.20236 315.546 3.8125 427.61 97.4138 502.298C191.015 576.987 320.718 582.337 425.705 589.43C530.707 596.522 611.349 537.114 623.506 447.33C635.664 357.531 555.423 331.165 511.901 228.954C468.363 126.743 472.251 93.1298 380.131 30.2674C288.026 -32.6104 143.944 5.99819 68.4092 113.698C-7.14134 221.399 0.20236 315.546 0.20236 315.546Z" fill="#FFED00"/>
<path opacity="0.7" d="M0.20236 315.546C0.20236 315.546 3.8125 427.61 97.4138 502.298C191.015 576.987 320.718 582.337 425.705 589.43C530.707 596.522 611.349 537.114 623.506 447.33C635.664 357.531 555.423 331.165 511.901 228.954C468.363 126.743 472.251 93.1298 380.131 30.2674C288.026 -32.6104 143.944 5.99819 68.4092 113.698C-7.14134 221.399 0.20236 315.546 0.20236 315.546Z" fill="#FEFEFE"/>
<path d="M42.7802 496.485H28.6328" stroke="#2B2A29" stroke-width="1.11" stroke-miterlimit="10"/>
<path d="M616.466 496.485H65.1953" stroke="#2B2A29" stroke-width="1.11" stroke-miterlimit="10"/>
<path d="M409.057 555.662C434.952 555.662 455.943 549.891 455.943 542.772C455.943 535.653 434.952 529.882 409.057 529.882C383.163 529.882 362.172 535.653 362.172 542.772C362.172 549.891 383.163 555.662 409.057 555.662Z" fill="#2B2A29"/>
<path d="M166.762 572.053C117.979 572.053 110.774 565.006 110.064 559.317C109.756 556.85 110.496 554.66 112.286 552.794C125.43 539.01 201.166 544.838 305.999 552.918C320.625 554.043 335.744 555.2 351.249 556.356C457.162 564.22 499.805 563.202 508.568 552.563C510.357 550.389 510.743 547.66 509.74 544.006C505.544 528.649 449.463 528.541 428.204 529.774C427.201 529.82 426.321 529.065 426.26 528.047C426.198 527.045 426.969 526.166 427.988 526.105C436.118 525.627 507.549 522.049 513.273 543.019C514.6 547.86 513.983 551.731 511.391 554.876C501.502 566.872 461.019 568.152 350.971 559.995C335.466 558.839 320.331 557.682 305.706 556.557C205.794 548.863 126.881 542.788 114.924 555.323C113.906 556.387 113.52 557.513 113.69 558.869C114.137 562.493 122.869 570.634 193.93 567.797C233.626 566.209 273.508 561.892 273.909 561.845C274.912 561.737 275.822 562.462 275.93 563.464C276.038 564.466 275.313 565.376 274.31 565.484C273.909 565.53 233.92 569.863 194.1 571.451C183.779 571.867 174.723 572.053 166.762 572.053Z" fill="#FEFEFE" stroke="#2B2A29" stroke-width="1.11" stroke-miterlimit="10"/>
<path d="M404.137 552.64C433.857 545.738 452.353 516.065 445.448 486.362C438.542 456.659 408.851 438.174 379.13 445.075C349.41 451.976 330.914 481.65 337.82 511.353C344.725 541.056 374.416 559.541 404.137 552.64Z" fill="#FEFEFE"/>
<mask id="mask0_280_5538" style="mask-type:luminance" maskUnits="userSpaceOnUse" x="336" y="443" width="111" height="112">
<path d="M404.137 552.64C433.857 545.738 452.353 516.065 445.448 486.362C438.542 456.659 408.851 438.174 379.13 445.075C349.41 451.977 330.914 481.65 337.82 511.353C344.725 541.056 374.416 559.541 404.137 552.64Z" fill="white"/>
</mask>
<g mask="url(#mask0_280_5538)">
<path d="M391.625 554.09C422.126 554.09 446.872 529.373 446.872 498.875C446.872 487.342 443.324 476.641 437.276 467.775C436.659 491.813 423.36 527.323 354.289 539.55C364.117 548.57 377.23 554.074 391.625 554.074V554.09Z" fill="#FFED00"/>
<path opacity="0.3" d="M391.625 554.09C422.126 554.09 446.872 529.373 446.872 498.875C446.872 487.342 443.324 476.641 437.276 467.775C436.659 491.813 423.36 527.323 354.289 539.55C364.117 548.57 377.23 554.074 391.625 554.074V554.09Z" fill="#FEFEFE"/>
<path d="M418.808 520.523C402.577 504.657 383.879 499.692 383.879 499.692C383.879 499.692 402.577 504.642 418.808 520.523ZM418.808 520.523C419.78 520.523 420.736 520.569 421.739 520.569C429.407 512.86 434.714 505.397 438.386 498.89M418.808 520.523L418.823 520.554C396.082 520.215 378.803 516.715 365.828 512.104C366.661 477.227 379.112 453.975 385.622 444.138C387.674 443.907 389.757 443.784 391.87 443.784C393.753 443.784 395.619 443.876 397.455 444.061M438.386 498.89C412.513 471.537 387.273 474.328 387.273 474.328M438.386 498.89C439.805 496.346 440.993 493.956 441.965 491.751C431.258 476.672 412.729 466.449 402.716 464.877L400.402 464.337M400.402 464.337C393.706 463.288 389.525 464.183 389.525 464.183C389.525 464.183 393.691 463.288 400.402 464.337ZM400.402 464.337L406.99 445.881C403.92 445.002 400.726 444.385 397.455 444.061M397.455 444.061C393.197 450.953 382.182 472.971 382.182 516.637C382.182 472.956 393.197 450.938 397.455 444.061ZM431.289 509.283C409.273 487.851 385.005 486.725 385.005 486.725" stroke="#2B2A29" stroke-width="1.11" stroke-linecap="round" stroke-linejoin="round"/>
<path d="M365.812 512.073C366.645 477.196 379.096 453.96 385.606 444.107C380.407 444.693 375.439 445.989 370.78 447.916C363.73 458.169 352.637 478.538 351.727 505.891C355.722 508.049 360.397 510.146 365.812 512.073Z" stroke="#2B2A29" stroke-width="1.11" stroke-linecap="round" stroke-linejoin="round"/>
<path d="M370.783 447.931C351.776 455.764 338.106 473.85 336.656 495.298C340.035 498.443 344.91 502.221 351.729 505.906C352.64 478.568 363.732 458.2 370.783 447.931Z" stroke="#2B2A29" stroke-width="1.11" stroke-linecap="round" stroke-linejoin="round"/>
<path d="M433.233 462.332C438.618 468.377 442.675 475.593 445.005 483.564C444.326 485.846 443.354 488.606 441.965 491.736L441.981 491.751C426.105 471.846 410.431 465.894 400.418 464.321L407.006 445.865C412.22 447.345 417.126 449.566 421.6 452.418M433.233 462.332L429.037 476.579M433.233 462.332C429.839 458.524 425.92 455.178 421.6 452.418M421.6 452.418L416.88 470.011" stroke="#2B2A29" stroke-width="1.11" stroke-linecap="round" stroke-linejoin="round"/>
<path d="M441.967 491.736C443.356 488.606 444.328 485.846 445.007 483.564C446.441 488.483 447.228 493.679 447.228 499.075C447.228 499.877 447.197 500.679 447.166 501.481H447.136C423.809 534.138 405.804 548.246 394.634 554.321C393.724 554.367 392.783 554.398 391.857 554.398C386.041 554.398 380.441 553.504 375.18 551.839C382.4 548.523 388.926 545.054 394.758 541.508M441.967 491.736C441.983 491.752 441.998 491.782 442.014 491.798M441.967 491.736C440.995 493.941 441.042 493.91 439.622 496.454C439.699 496.547 438.295 498.782 438.388 498.875C438.311 498.782 436.922 501.65 436.83 501.558C433.158 508.08 422.096 520.569 422.266 520.569C422.081 520.569 416.28 525.827 413.102 528.479M413.102 528.479C413.148 528.479 413.179 528.479 413.225 528.479M413.102 528.479C407.856 532.858 401.777 537.237 394.758 541.508M394.758 541.508C394.897 541.477 395.035 541.462 395.159 541.446C395.035 541.477 394.897 541.493 394.758 541.508Z" stroke="#2B2A29" stroke-width="1.11" stroke-linecap="round" stroke-linejoin="round"/>
<path d="M447.165 501.481C423.838 534.153 405.834 548.246 394.664 554.321C423.144 552.918 445.947 529.99 447.165 501.481Z" stroke="#2B2A29" stroke-width="1.11" stroke-linecap="round" stroke-linejoin="round"/>
<path d="M348.609 533.567C355.382 542.048 364.593 548.493 375.192 551.839C382.412 548.523 388.938 545.07 394.77 541.508C381.594 543.944 360.983 537.9 348.609 533.567Z" stroke="#2B2A29" stroke-width="1.11" stroke-linecap="round" stroke-linejoin="round"/>
<path d="M394.772 541.508C401.791 537.237 407.855 532.858 413.115 528.479C373.342 532.55 348.796 520.245 338.367 513.23C340.357 520.754 343.89 527.646 348.611 533.567C361 537.915 381.596 543.944 394.772 541.508Z" stroke="#2B2A29" stroke-width="1.11" stroke-linecap="round" stroke-linejoin="round"/>
<path d="M418.808 520.523C419.796 520.538 420.752 520.569 421.74 520.569C419.132 523.19 416.278 525.827 413.1 528.479C373.327 532.55 348.781 520.23 338.352 513.23C337.164 508.712 336.516 503.963 336.516 499.075C336.516 497.796 336.577 496.531 336.654 495.282C340.033 498.428 346.852 505.505 365.813 512.073M418.808 520.523C419.024 520.723 419.225 520.924 419.441 521.14C419.225 520.924 419.024 520.739 418.808 520.523ZM418.808 520.523C396.083 520.199 378.788 516.699 365.813 512.073M365.813 512.073C365.813 512.073 365.813 512.089 365.813 512.104C365.813 512.104 365.813 512.089 365.813 512.073Z" stroke="#2B2A29" stroke-width="1.11" stroke-linecap="round" stroke-linejoin="round"/>
</g>
<path d="M404.137 552.64C433.857 545.738 452.353 516.065 445.448 486.362C438.542 456.659 408.851 438.174 379.13 445.075C349.41 451.976 330.914 481.65 337.82 511.353C344.725 541.056 374.416 559.541 404.137 552.64Z" stroke="#2B2A29" stroke-width="1.11" stroke-linecap="round" stroke-linejoin="round"/>
<path d="M493.385 404.527C493.385 404.527 489.605 392.254 478.589 387.86C470.937 384.791 462.112 385.593 454.182 386.981C439.402 389.556 426.504 395.43 412.48 400.441C412.48 400.441 418.467 398.237 443.012 410.186C452.053 414.596 462.39 418.003 472.742 417.772C481.042 417.587 493.77 415.228 493.385 404.527Z" fill="#FFED00"/>
<path d="M494.713 368.478C494.713 368.478 494.636 355.65 485.364 348.249C478.915 343.114 470.244 341.326 462.253 340.354C447.365 338.55 433.31 340.447 418.438 341.202C418.438 341.202 424.794 340.817 444.85 359.35C452.24 366.181 461.142 372.425 471.108 375.201C479.116 377.421 491.982 378.824 494.698 368.478H494.713Z" fill="#FFED00"/>
<path d="M520.09 416.138C520.09 416.138 510.078 408.105 510.031 396.247C510.001 388.014 513.996 380.119 518.208 373.258C526.046 360.476 536.274 350.654 546.102 339.491C546.102 339.491 541.844 344.24 543.911 371.454C544.667 381.476 544.035 392.347 540.008 401.86C536.768 409.508 529.887 420.455 520.075 416.153L520.09 416.138Z" fill="#FFED00"/>
<path d="M555.576 435.858C555.576 435.858 554.156 423.107 562.518 414.688C568.319 408.845 576.727 406.069 584.565 404.188C599.144 400.673 613.322 400.935 628.179 399.979C628.179 399.979 621.823 400.333 604.05 421.056C597.509 428.689 589.378 435.935 579.797 439.836C572.099 442.966 559.479 445.85 555.591 435.874L555.576 435.858Z" fill="#FFED00"/>
<path d="M553.245 390.373C553.245 390.373 540.517 388.631 534.392 378.47C530.134 371.408 529.502 362.588 529.594 354.54C529.748 339.553 533.467 325.876 536.166 311.244C536.166 311.244 534.963 317.504 550.715 339.784C556.516 347.987 561.561 357.639 562.996 367.877C564.153 376.095 563.86 389.031 553.23 390.373H553.245Z" fill="#FFED00"/>
<path d="M589.857 367.538C589.857 367.538 599.006 376.542 610.793 375.201C618.985 374.26 626.36 369.373 632.685 364.392C644.472 355.11 653.035 343.824 662.986 332.768C662.986 332.768 658.774 337.548 631.482 338.674C621.438 339.09 610.716 340.987 601.721 346.09C594.501 350.192 584.427 358.317 589.857 367.538Z" fill="#FFED00"/>
<path d="M579.274 358.641C579.274 358.641 592.048 359.921 600.394 351.487C606.195 345.628 608.88 337.194 610.685 329.345C614.048 314.728 613.647 300.574 614.449 285.71C614.449 285.71 614.156 292.078 593.606 310.041C586.031 316.656 578.873 324.858 575.077 334.464C572.022 342.189 569.261 354.833 579.289 358.61L579.274 358.641Z" fill="#FFED00"/>
<path d="M533.635 482.932L511.589 428.673L486.133 365.95" stroke="#2B2A29" stroke-width="1.11" stroke-linecap="round" stroke-linejoin="round"/>
<path d="M538.727 473.604L560.788 398.159L584.532 351.533" stroke="#2B2A29" stroke-width="1.11" stroke-linecap="round" stroke-linejoin="round"/>
<path d="M547.211 443.938L569.273 431.217" stroke="#2B2A29" stroke-width="1.11" stroke-linecap="round" stroke-linejoin="round"/>
<path d="M560.789 398.159L549.758 373.566" stroke="#2B2A29" stroke-width="1.11" stroke-linecap="round" stroke-linejoin="round"/>
<path d="M574.582 373.69L601.504 361.709" stroke="#2B2A29" stroke-width="1.11" stroke-linecap="round" stroke-linejoin="round"/>
<path d="M515.832 438.85L525.166 401.552" stroke="#2B2A29" stroke-width="1.11" stroke-linecap="round" stroke-linejoin="round"/>
<path d="M503.459 410.494L481.891 399.007" stroke="#2B2A29" stroke-width="1.11" stroke-linecap="round" stroke-linejoin="round"/>
<path d="M544.961 510.069H526.571C520.369 510.069 515.046 505.659 513.889 499.569L507.363 465.139H564.2L557.674 499.569C556.517 505.659 551.194 510.069 544.992 510.069H544.961Z" fill="#2B2A29" stroke="#2B2A29" stroke-width="1.11" stroke-linecap="round" stroke-linejoin="round"/>
<path d="M293.47 437.508C259.112 437.508 238.485 407.056 231.156 380.274L230.91 379.333C229.506 373.952 232.746 368.447 238.13 367.044C243.514 365.657 249.022 368.879 250.426 374.26L250.611 374.954C256.196 395.338 271.362 418.636 295.676 417.294C305.38 416.755 313.187 412.931 319.558 405.638C332.904 390.358 338.874 357.084 337.547 340.308C337.193 335.868 340.51 331.982 344.953 331.627C349.427 331.273 353.284 334.588 353.639 339.028C355.12 357.685 353.145 397.836 334.77 418.882C324.789 430.308 312.014 436.552 296.833 437.4C295.707 437.462 294.596 437.493 293.501 437.493L293.47 437.508Z" fill="#FEFEFE"/>
<mask id="mask1_280_5538" style="mask-type:luminance" maskUnits="userSpaceOnUse" x="230" y="331" width="125" height="107">
<path d="M293.47 437.508C259.112 437.508 238.485 407.056 231.156 380.274L230.91 379.333C229.506 373.952 232.746 368.447 238.13 367.044C243.514 365.657 249.022 368.879 250.426 374.26L250.611 374.954C256.196 395.338 271.362 418.636 295.676 417.294C305.38 416.755 313.187 412.931 319.558 405.638C332.904 390.358 338.874 357.084 337.547 340.308C337.193 335.868 340.51 331.982 344.953 331.627C349.427 331.273 353.284 334.588 353.639 339.028C355.12 357.685 353.145 397.836 334.77 418.882C324.789 430.308 312.014 436.552 296.833 437.4C295.707 437.462 294.596 437.493 293.501 437.493L293.47 437.508Z" fill="white"/>
</mask>
<g mask="url(#mask1_280_5538)">
<path d="M344.936 331.643C340.492 331.997 337.175 335.883 337.53 340.324C338.178 348.511 337.083 360.615 334.244 372.657C337.731 372.487 341.727 372.873 346.232 374.214C345.584 382.448 342.992 394.551 334.46 406.393C319.48 427.193 297.001 433.839 279.521 431.356C271.715 430.246 262.736 426.129 255.191 421.935C265.158 431.264 277.901 437.524 293.468 437.524C294.563 437.524 295.674 437.493 296.801 437.431C311.997 436.583 324.756 430.338 334.738 418.913C353.112 397.866 355.087 357.716 353.606 339.059C353.251 334.619 349.394 331.304 344.92 331.658L344.936 331.643Z" fill="#FFED00"/>
<path opacity="0.5" d="M344.936 331.643C340.492 331.997 337.175 335.883 337.53 340.324C338.178 348.511 337.083 360.615 334.244 372.657C337.731 372.487 341.727 372.873 346.232 374.214C345.584 382.448 342.992 394.551 334.46 406.393C319.48 427.193 297.001 433.839 279.521 431.356C271.715 430.246 262.736 426.129 255.191 421.935C265.158 431.264 277.901 437.524 293.468 437.524C294.563 437.524 295.674 437.493 296.801 437.431C311.997 436.583 324.756 430.338 334.738 418.913C353.112 397.866 355.087 357.716 353.606 339.059C353.251 334.619 349.394 331.304 344.92 331.658L344.936 331.643Z" fill="#FEFEFE"/>
</g>
<path d="M293.47 437.508C259.112 437.508 238.485 407.056 231.156 380.274L230.91 379.333C229.506 373.952 232.746 368.447 238.13 367.044C243.514 365.657 249.022 368.879 250.426 374.26L250.611 374.954C256.196 395.338 271.362 418.636 295.676 417.294C305.38 416.755 313.187 412.931 319.558 405.638C332.904 390.358 338.874 357.084 337.547 340.308C337.193 335.868 340.51 331.982 344.953 331.627C349.427 331.273 353.284 334.588 353.639 339.028C355.12 357.685 353.145 397.836 334.77 418.882C324.789 430.308 312.014 436.552 296.833 437.4C295.707 437.462 294.596 437.493 293.501 437.493L293.47 437.508Z" stroke="#2B2A29" stroke-width="1.11" stroke-linecap="round" stroke-linejoin="round"/>
<path d="M273.661 416.647C274.464 412.869 265.423 418.79 257.863 424.279C260.671 426.638 263.68 428.735 266.873 430.554C269.573 426.175 272.875 420.301 273.661 416.647Z" fill="#FFED00" stroke="#2B2A29" stroke-width="1.11" stroke-linecap="round" stroke-linejoin="round"/>
<path d="M293.469 437.508C294.564 437.508 295.675 437.477 296.801 437.416C300.164 437.231 303.404 436.753 306.536 436.043C302.278 430.493 296.431 423.169 294.734 422.598C292.805 421.951 289.087 431.402 287.035 437.138C289.118 437.385 291.262 437.508 293.469 437.508Z" fill="#FFED00" stroke="#2B2A29" stroke-width="1.11" stroke-linecap="round" stroke-linejoin="round"/>
<path d="M250.611 374.954L250.426 374.26C249.022 368.879 243.53 365.657 238.13 367.044C232.746 368.447 229.506 373.952 230.91 379.333L231.156 380.274C233.594 389.17 237.497 398.452 242.882 406.917L261.256 398.175C256.319 391.051 252.756 382.802 250.611 374.97V374.954Z" fill="#FFED00" stroke="#2B2A29" stroke-width="1.11" stroke-linecap="round" stroke-linejoin="round"/>
<path d="M334.753 418.898C336.157 417.294 337.453 415.552 338.672 413.748C332.84 411.759 324.108 409.014 320.868 409.307C317.026 409.662 322.241 421.997 324.941 427.825C328.459 425.327 331.745 422.351 334.753 418.898Z" fill="#FFED00" stroke="#2B2A29" stroke-width="1.11" stroke-linecap="round" stroke-linejoin="round"/>
<path d="M335.063 385.963C334.446 387.181 341.99 392.686 347.081 396.217C348.701 391.452 349.982 386.503 350.969 381.538C344.798 382.771 335.665 384.761 335.048 385.963H335.063Z" fill="#FFED00" stroke="#2B2A29" stroke-width="1.11" stroke-linecap="round" stroke-linejoin="round"/>
<path d="M353.483 363.143C353.823 358.749 353.993 354.555 354.008 350.685C348.701 353.615 342.406 357.639 342.406 360.291C342.406 362.943 348.3 363.267 353.483 363.128V363.143Z" fill="#FFED00" stroke="#2B2A29" stroke-width="1.11" stroke-linecap="round" stroke-linejoin="round"/>
<path d="M270.419 243.848C270.419 243.848 255.439 287.206 263.507 320.973C271.576 354.74 301.136 365.857 301.136 365.857C301.136 365.857 279.259 373.536 284.243 385.423C289.226 397.311 308.048 389.648 314.188 385.809C320.328 381.97 328.012 370.467 329.153 362.789C330.31 355.11 329.925 350.901 329.925 350.901C329.925 350.901 354.872 348.218 371.765 334.403C371.765 334.403 386.73 346.291 397.484 343.993C408.237 341.696 423.588 322.499 422.06 305.246C420.518 287.977 410.536 287.977 404.395 290.66C398.255 293.342 395.956 296.025 395.956 296.025C395.956 296.025 404.781 285.278 395.956 270.322C387.131 255.366 371.38 254.21 371.38 254.21C371.38 254.21 366.767 229.647 352.959 220.442C339.135 211.237 289.997 201.647 270.419 243.848Z" fill="#FEFEFE"/>
<mask id="mask2_280_5538" style="mask-type:luminance" maskUnits="userSpaceOnUse" x="261" y="212" width="162" height="180">
<path d="M270.419 243.848C270.419 243.848 255.439 287.206 263.507 320.973C271.576 354.74 301.136 365.857 301.136 365.857C301.136 365.857 279.259 373.536 284.243 385.423C289.226 397.311 308.048 389.648 314.188 385.809C320.328 381.97 328.012 370.467 329.153 362.789C330.31 355.11 329.925 350.901 329.925 350.901C329.925 350.901 354.872 348.218 371.765 334.403C371.765 334.403 386.73 346.291 397.484 343.993C408.237 341.696 423.588 322.499 422.06 305.246C420.518 287.977 410.536 287.977 404.395 290.66C398.255 293.342 395.956 296.025 395.956 296.025C395.956 296.025 404.781 285.278 395.956 270.322C387.131 255.366 371.38 254.21 371.38 254.21C371.38 254.21 366.767 229.647 352.959 220.442C339.135 211.237 289.997 201.647 270.419 243.848Z" fill="white"/>
</mask>
<g mask="url(#mask2_280_5538)">
<path d="M384.477 258.774C373.6 276.875 351.538 297.706 316.81 300.743C286.262 303.426 269.137 297.413 261.238 293.235C262.303 267.362 270.402 243.864 270.402 243.864C289.981 201.662 339.118 211.253 352.942 220.458C366.765 229.663 371.363 254.225 371.363 254.225C371.363 254.225 377.627 254.688 384.461 258.774H384.477ZM404.394 290.66C398.254 293.342 395.955 296.025 395.955 296.025C395.955 296.025 398.624 292.757 399.55 287.329C378.799 297.644 380.419 319.739 377.827 319.739C374.664 319.739 373.075 308.653 373.075 308.653C373.075 308.653 369.11 324.488 345.336 335.59C321.561 346.691 294.609 337.964 294.609 337.964C294.609 337.964 300.163 350.639 285.892 349.051C281.079 348.511 277.453 346.892 274.738 344.98C286.262 360.26 301.104 365.872 301.104 365.872C301.104 365.872 279.227 373.551 284.21 385.439C289.194 397.327 308.016 389.664 314.156 385.824C320.296 381.985 327.98 370.483 329.121 362.804C330.278 355.126 329.893 350.916 329.893 350.916C329.893 350.916 354.855 348.233 371.733 334.418C371.733 334.418 386.698 346.306 397.451 344.009C408.205 341.711 423.556 322.515 422.028 305.261C420.485 287.992 410.504 287.992 404.363 290.675L404.394 290.66Z" fill="#FFED00"/>
<path opacity="0.5" d="M384.477 258.774C373.6 276.875 351.538 297.706 316.81 300.743C286.262 303.426 269.137 297.413 261.238 293.235C262.303 267.362 270.402 243.864 270.402 243.864C289.981 201.662 339.118 211.253 352.942 220.458C366.765 229.663 371.363 254.225 371.363 254.225C371.363 254.225 377.627 254.688 384.461 258.774H384.477ZM404.394 290.66C398.254 293.342 395.955 296.025 395.955 296.025C395.955 296.025 398.624 292.757 399.55 287.329C378.799 297.644 380.419 319.739 377.827 319.739C374.664 319.739 373.075 308.653 373.075 308.653C373.075 308.653 369.11 324.488 345.336 335.59C321.561 346.691 294.609 337.964 294.609 337.964C294.609 337.964 300.163 350.639 285.892 349.051C281.079 348.511 277.453 346.892 274.738 344.98C286.262 360.26 301.104 365.872 301.104 365.872C301.104 365.872 279.227 373.551 284.21 385.439C289.194 397.327 308.016 389.664 314.156 385.824C320.296 381.985 327.98 370.483 329.121 362.804C330.278 355.126 329.893 350.916 329.893 350.916C329.893 350.916 354.855 348.233 371.733 334.418C371.733 334.418 386.698 346.306 397.451 344.009C408.205 341.711 423.556 322.515 422.028 305.261C420.485 287.992 410.504 287.992 404.363 290.675L404.394 290.66Z" fill="#FEFEFE"/>
<path d="M329.922 350.901C329.922 350.901 304.358 352.982 286.492 330.995" stroke="#2B2A29" stroke-width="1.11" stroke-linecap="round" stroke-linejoin="round"/>
</g>
<path d="M270.419 243.848C270.419 243.848 255.439 287.206 263.507 320.973C271.576 354.74 301.136 365.857 301.136 365.857C301.136 365.857 279.259 373.536 284.243 385.423C289.226 397.311 308.048 389.648 314.188 385.809C320.328 381.97 328.012 370.467 329.153 362.789C330.31 355.11 329.925 350.901 329.925 350.901C329.925 350.901 354.872 348.218 371.765 334.403C371.765 334.403 386.73 346.291 397.484 343.993C408.237 341.696 423.588 322.499 422.06 305.246C420.518 287.977 410.536 287.977 404.395 290.66C398.255 293.342 395.956 296.025 395.956 296.025C395.956 296.025 404.781 285.278 395.956 270.322C387.131 255.366 371.38 254.21 371.38 254.21C371.38 254.21 366.767 229.647 352.959 220.442C339.135 211.237 289.997 201.647 270.419 243.848Z" stroke="#2B2A29" stroke-width="1.11" stroke-linecap="round" stroke-linejoin="round"/>
<path d="M395.957 296.041C395.957 296.041 387.889 301.407 384.062 317.905" stroke="#2B2A29" stroke-width="1.11" stroke-linecap="round" stroke-linejoin="round"/>
<path d="M410.75 303.087C409.809 305.893 407.233 307.574 405.011 306.819C402.789 306.063 401.756 303.18 402.712 300.373C403.653 297.567 406.23 295.887 408.451 296.642C410.673 297.398 411.707 300.281 410.75 303.087Z" fill="#FEFEFE" stroke="#2B2A29" stroke-width="1.11" stroke-linecap="round" stroke-linejoin="round"/>
<path d="M418.696 308.083C417.754 310.889 415.178 312.57 412.956 311.814C410.735 311.059 409.701 308.175 410.658 305.369C411.599 302.563 414.175 300.882 416.397 301.638C418.618 302.393 419.652 305.277 418.696 308.083Z" fill="#FEFEFE" stroke="#2B2A29" stroke-width="1.11" stroke-linecap="round" stroke-linejoin="round"/>
<path d="M420.393 315.561C419.699 317.596 417.832 318.814 416.227 318.275C414.608 317.735 413.867 315.638 414.561 313.587C415.255 311.552 417.122 310.334 418.727 310.874C420.347 311.413 421.087 313.51 420.393 315.561Z" fill="#FEFEFE" stroke="#2B2A29" stroke-width="1.11" stroke-linecap="round" stroke-linejoin="round"/>
<path d="M410.257 325.83C407.48 330.841 401.926 333.061 397.853 330.795C393.78 328.528 392.716 322.654 395.493 317.642C398.27 312.631 403.824 310.411 407.897 312.678C411.97 314.944 413.034 320.819 410.257 325.83Z" fill="#FEFEFE" stroke="#2B2A29" stroke-width="1.11" stroke-linecap="round" stroke-linejoin="round"/>
<path d="M301.121 365.872C301.121 365.872 308.033 369.712 317.629 367.029" stroke="#2B2A29" stroke-width="1.11" stroke-linecap="round" stroke-linejoin="round"/>
<path d="M284.227 385.439C284.227 385.439 285.769 378.917 295.366 374.307" stroke="#2B2A29" stroke-width="1.11" stroke-linecap="round" stroke-linejoin="round"/>
<path d="M293.84 391.19C293.84 391.19 297.681 381.985 304.207 377.76" stroke="#2B2A29" stroke-width="1.11" stroke-linecap="round" stroke-linejoin="round"/>
<path d="M373.758 254.117C358.515 275.673 336.839 286.435 308.744 286.435C280.65 286.435 258.974 275.657 243.731 254.117C228.257 232.346 220.527 203.621 220.527 167.926C220.527 132.232 228.257 103.491 243.731 81.735C258.974 60.1796 280.65 49.4172 308.744 49.4172C336.839 49.4172 358.515 60.195 373.758 81.735C389.216 103.506 396.961 132.232 396.961 167.926C396.961 203.621 389.232 232.361 373.758 254.117ZM250.92 167.926C250.92 196.22 255.934 218.099 265.947 233.548C275.96 249.013 290.231 256.723 308.744 256.723C327.258 256.723 341.575 248.998 351.711 233.548C361.832 218.099 366.908 196.22 366.908 167.926C366.908 139.633 361.847 117.707 351.711 102.134C341.59 86.5765 327.258 78.79 308.744 78.79C290.231 78.79 275.96 86.5148 265.947 101.964C255.919 117.43 250.92 139.401 250.92 167.911V167.926Z" fill="#2B2A29" stroke="#2B2A29" stroke-width="1.11" stroke-linecap="round" stroke-linejoin="round"/>
<path d="M168.071 210.359H195.842V238.76H168.071V282.179H137.694V238.76H21.0586V210.359L103.058 53.642H135.734L53.735 210.359H137.694V145.708H168.071V210.359Z" fill="#2B2A29" stroke="#2B2A29" stroke-width="1.11" stroke-linecap="round" stroke-linejoin="round"/>
<path d="M569.15 210.359H596.92V238.76H569.15V282.179H538.772V238.76H422.137V210.359L504.136 53.642H536.813L454.813 210.359H538.772V145.708H569.15V210.359Z" fill="#2B2A29" stroke="#2B2A29" stroke-width="1.11" stroke-linecap="round" stroke-linejoin="round"/>
<path d="M239.32 221.984C239.32 221.984 223.197 244.619 220.899 267.639C218.6 290.66 221.284 306.001 228.196 311.768C235.108 317.519 242.019 315.222 245.861 309.856C249.703 304.49 243.562 285.679 243.562 285.679C243.562 285.679 250.088 267.639 260.07 254.981C270.052 242.322 271.965 240.394 271.965 240.394C271.965 240.394 254.686 220.828 239.335 221.984H239.32Z" fill="#FEFEFE"/>
<mask id="mask3_280_5538" style="mask-type:luminance" maskUnits="userSpaceOnUse" x="220" y="221" width="52" height="95">
<path d="M239.32 221.984C239.32 221.984 223.197 244.619 220.899 267.639C218.6 290.66 221.284 306.001 228.196 311.768C235.108 317.519 242.019 315.222 245.861 309.856C249.703 304.49 243.562 285.679 243.562 285.679C243.562 285.679 250.088 267.639 260.07 254.981C270.052 242.322 271.965 240.394 271.965 240.394C271.965 240.394 254.686 220.828 239.335 221.984H239.32Z" fill="white"/>
</mask>
<g mask="url(#mask3_280_5538)">
<path d="M239.321 221.984C239.321 221.984 234.616 228.599 229.926 238.297C237.624 241.397 249.596 247.718 257.187 258.897C258.113 257.555 259.069 256.245 260.057 254.981C270.038 242.322 271.951 240.394 271.951 240.394C271.951 240.394 254.672 220.828 239.321 221.984Z" fill="#FFED00"/>
<path opacity="0.5" d="M239.321 221.984C239.321 221.984 234.616 228.599 229.926 238.297C237.624 241.397 249.596 247.718 257.187 258.897C258.113 257.555 259.069 256.245 260.057 254.981C270.038 242.322 271.951 240.394 271.951 240.394C271.951 240.394 254.672 220.828 239.321 221.984Z" fill="#FEFEFE"/>
</g>
<path d="M239.32 221.984C239.32 221.984 223.197 244.619 220.899 267.639C218.6 290.66 221.284 306.001 228.196 311.768C235.108 317.519 242.019 315.222 245.861 309.856C249.703 304.49 243.562 285.679 243.562 285.679C243.562 285.679 250.088 267.639 260.07 254.981C270.052 242.322 271.965 240.394 271.965 240.394C271.965 240.394 254.686 220.828 239.335 221.984H239.32Z" stroke="#2B2A29" stroke-width="1.11" stroke-linecap="round" stroke-linejoin="round"/>
<path d="M228.181 311.768C228.181 311.768 225.496 305.631 225.496 296.041" stroke="#2B2A29" stroke-width="1.11" stroke-linecap="round" stroke-linejoin="round"/>
<path d="M238.548 314.065C238.548 314.065 234.706 307.543 234.32 296.411" stroke="#2B2A29" stroke-width="1.11" stroke-linecap="round" stroke-linejoin="round"/>
<path d="M244.301 263.029C244.301 258.989 236.587 251.095 225.865 247.672C224.476 251.326 223.242 255.212 222.316 259.174C225.217 259.73 230.401 260.932 234.319 263.029C240.074 266.097 244.301 267.639 244.301 263.029Z" fill="#FFED00" stroke="#2B2A29" stroke-width="1.11" stroke-linecap="round" stroke-linejoin="round"/>
<path d="M238.378 223.357C237.036 225.376 234.397 229.524 231.559 235.013C234.397 235.753 237.545 236.941 240.846 238.868C252.741 245.776 255.055 246.546 251.214 236.571C248.822 230.357 243.315 226.086 238.378 223.372V223.357Z" fill="#FFED00" stroke="#2B2A29" stroke-width="1.11" stroke-linecap="round" stroke-linejoin="round"/>
<path d="M365.597 210.806C365.597 210.806 383.863 231.76 388.415 254.441C392.966 277.122 391.793 292.664 385.483 299.063C379.173 305.462 372.061 303.858 367.726 298.878C363.375 293.913 367.649 274.593 367.649 274.593C367.649 274.593 359.379 257.293 348.209 245.668C337.04 234.042 334.941 232.33 334.941 232.33C334.941 232.33 350.215 211.16 365.612 210.806H365.597Z" fill="#FEFEFE"/>
<mask id="mask4_280_5538" style="mask-type:luminance" maskUnits="userSpaceOnUse" x="334" y="210" width="58" height="94">
<path d="M365.597 210.806C365.597 210.806 383.863 231.76 388.415 254.441C392.966 277.122 391.793 292.664 385.483 299.063C379.173 305.462 372.061 303.858 367.726 298.878C363.375 293.913 367.649 274.593 367.649 274.593C367.649 274.593 359.379 257.293 348.209 245.668C337.04 234.042 334.941 232.33 334.941 232.33C334.941 232.33 350.215 211.16 365.612 210.806H365.597Z" fill="white"/>
</mask>
<g mask="url(#mask4_280_5538)">
<path d="M365.597 210.805C350.199 211.16 334.926 232.33 334.926 232.33C334.926 232.33 337.024 234.057 348.194 245.667C350.277 247.826 352.251 250.185 354.103 252.606C358.006 246.084 365.705 235.83 378.263 229.015C372.061 218.222 365.597 210.79 365.597 210.79V210.805Z" fill="#FFED00"/>
<path opacity="0.5" d="M365.597 210.805C350.199 211.16 334.926 232.33 334.926 232.33C334.926 232.33 337.024 234.057 348.194 245.667C350.277 247.826 352.251 250.185 354.103 252.606C358.006 246.084 365.705 235.83 378.263 229.015C372.061 218.222 365.597 210.79 365.597 210.79V210.805Z" fill="#FEFEFE"/>
</g>
<path d="M365.597 210.806C365.597 210.806 383.863 231.76 388.415 254.441C392.966 277.122 391.793 292.664 385.483 299.063C379.173 305.462 372.061 303.858 367.726 298.878C363.375 293.913 367.649 274.593 367.649 274.593C367.649 274.593 359.379 257.293 348.209 245.668C337.04 234.042 334.941 232.33 334.941 232.33C334.941 232.33 350.215 211.16 365.612 210.806H365.597Z" stroke="#2B2A29" stroke-width="1.11" stroke-linecap="round" stroke-linejoin="round"/>
<path d="M385.484 299.063C385.484 299.063 387.552 292.695 386.611 283.151" stroke="#2B2A29" stroke-width="1.11" stroke-linecap="round" stroke-linejoin="round"/>
<path d="M375.395 302.378C375.395 302.378 378.573 295.517 377.863 284.4" stroke="#2B2A29" stroke-width="1.11" stroke-linecap="round" stroke-linejoin="round"/>
<path d="M364.653 252.159C364.252 248.135 371.148 239.516 381.501 235.075C383.244 238.575 384.864 242.322 386.16 246.176C383.337 247.009 378.292 248.705 374.589 251.188C369.158 254.811 365.101 256.754 364.653 252.159Z" fill="#FFED00" stroke="#2B2A29" stroke-width="1.11" stroke-linecap="round" stroke-linejoin="round"/>
<path d="M366.66 212.085C368.203 213.967 371.226 217.837 374.59 223.017C371.844 224.035 368.835 225.531 365.734 227.766C354.564 235.8 352.358 236.802 355.197 226.487C356.971 220.072 362.031 215.277 366.675 212.085H366.66Z" fill="#FFED00" stroke="#2B2A29" stroke-width="1.11" stroke-linecap="round" stroke-linejoin="round"/>
<path d="M237.806 202.402C237.806 202.402 233.054 218.423 234.844 224.96C236.618 231.482 244.934 225.546 253.249 232.67C261.565 239.793 269.263 252.606 300.752 254.981C332.225 257.355 351.247 240.394 357.773 230.896C364.3 221.398 363.713 210.127 374.991 209.526C386.269 208.94 376.765 186.968 373.217 183.407C373.217 183.407 395.186 150.765 395.186 142.454C395.186 134.143 374.405 135.932 348.856 143.641C348.856 143.641 329.849 133.558 295.398 139.494C260.948 145.43 250.858 155.514 250.858 155.514C250.858 155.514 208.092 160.849 205.13 166.199C202.167 171.534 211.069 194.092 237.79 202.402H237.806Z" fill="#FEFEFE"/>
<mask id="mask5_280_5538" style="mask-type:luminance" maskUnits="userSpaceOnUse" x="204" y="136" width="192" height="120">
<path d="M237.806 202.402C237.806 202.402 233.054 218.423 234.844 224.96C236.618 231.482 244.934 225.546 253.249 232.67C261.565 239.793 269.263 252.606 300.752 254.981C332.225 257.355 351.247 240.394 357.773 230.896C364.3 221.398 363.713 210.127 374.991 209.526C386.269 208.94 376.765 186.968 373.217 183.407C373.217 183.407 395.186 150.765 395.186 142.454C395.186 134.143 374.405 135.932 348.856 143.641C348.856 143.641 329.849 133.558 295.398 139.494C260.948 145.43 250.858 155.514 250.858 155.514C250.858 155.514 208.092 160.849 205.13 166.199C202.167 171.534 211.069 194.092 237.79 202.402H237.806Z" fill="white"/>
</mask>
<g mask="url(#mask5_280_5538)">
<path d="M374.991 209.526C386.269 208.94 376.766 186.968 373.217 183.407C373.217 183.407 377.398 177.193 382.104 169.514C369.329 162.853 356.802 159.153 353.47 162.9C346.311 170.948 350.214 186.367 353.47 201.369C356.725 216.372 343.688 222.879 334.555 235.923C325.422 248.967 312.37 234.612 312.37 234.612C307.803 253.516 288.24 241.134 288.24 241.134C273.229 236.571 247.788 221.568 253.018 211.145C258.233 200.706 259.544 190.931 250.411 182.466C241.278 173.986 204.852 166.955 204.852 166.955C202.939 173.384 212.181 194.446 237.806 202.418C237.806 202.418 233.055 218.438 234.844 224.976C236.618 231.498 244.934 225.562 253.25 232.685C261.565 239.808 269.264 252.621 300.752 254.996C332.225 257.37 351.248 240.41 357.774 230.912C364.3 221.414 363.714 210.143 374.991 209.541V209.526Z" fill="#FFED00"/>
<path opacity="0.5" d="M374.991 209.526C386.269 208.94 376.766 186.968 373.217 183.407C373.217 183.407 377.398 177.193 382.104 169.514C369.329 162.853 356.802 159.153 353.47 162.9C346.311 170.948 350.214 186.367 353.47 201.369C356.725 216.372 343.688 222.879 334.555 235.923C325.422 248.967 312.37 234.612 312.37 234.612C307.803 253.516 288.24 241.134 288.24 241.134C273.229 236.571 247.788 221.568 253.018 211.145C258.233 200.706 259.544 190.931 250.411 182.466C241.278 173.986 204.852 166.955 204.852 166.955C202.939 173.384 212.181 194.446 237.806 202.418C237.806 202.418 233.055 218.438 234.844 224.976C236.618 231.498 244.934 225.562 253.25 232.685C261.565 239.808 269.264 252.621 300.752 254.996C332.225 257.37 351.248 240.41 357.774 230.912C364.3 221.414 363.714 210.143 374.991 209.541V209.526Z" fill="#FEFEFE"/>
<path d="M328.555 213.119C328.987 216.881 320.64 220.936 309.902 222.185C299.164 223.434 290.108 221.398 289.676 217.636C289.244 213.874 297.591 209.819 308.329 208.57C319.066 207.321 328.123 209.356 328.555 213.103V213.119Z" fill="#FFED00"/>
<path opacity="0.5" d="M328.555 213.119C328.987 216.881 320.64 220.936 309.902 222.185C299.164 223.434 290.108 221.398 289.676 217.636C289.244 213.874 297.591 209.819 308.329 208.57C319.066 207.321 328.123 209.356 328.555 213.103V213.119Z" fill="#FEFEFE"/>
</g>
<path d="M237.806 202.402C237.806 202.402 233.054 218.423 234.844 224.96C236.618 231.482 244.934 225.546 253.249 232.67C261.565 239.793 269.263 252.606 300.752 254.981C332.225 257.355 351.247 240.394 357.773 230.896C364.3 221.398 363.713 210.127 374.991 209.526C386.269 208.94 376.765 186.968 373.217 183.407C373.217 183.407 395.186 150.765 395.186 142.454C395.186 134.143 374.405 135.932 348.856 143.641C348.856 143.641 329.849 133.558 295.398 139.494C260.948 145.43 250.858 155.514 250.858 155.514C250.858 155.514 208.092 160.849 205.13 166.199C202.167 171.534 211.069 194.092 237.79 202.402H237.806Z" stroke="#2B2A29" stroke-width="1.11" stroke-miterlimit="10"/>
<path d="M360.628 154.836C345.277 165.197 350.646 175.558 357.558 181.31C361.77 184.825 368.558 184.332 373.217 183.407C373.217 183.407 395.187 150.765 395.187 142.454C395.187 142.454 375.994 144.474 360.628 154.836Z" fill="#FFED00" stroke="#2B2A29" stroke-width="1.11" stroke-miterlimit="10"/>
<path d="M204.852 166.939C202.939 173.369 212.181 194.431 237.806 202.402C237.806 202.402 257.369 200.491 250.843 184.763C244.749 170.085 213.939 166.43 204.852 166.939Z" fill="#FFED00" stroke="#2B2A29" stroke-width="1.11" stroke-miterlimit="10"/>
<path d="M295.414 139.478C293.377 139.833 291.449 140.188 289.582 140.573C292.652 156.146 297.743 182.081 302.279 182.081C306.815 182.081 310.286 153.648 311.767 137.721C306.784 137.921 301.338 138.461 295.414 139.478Z" fill="#FFED00" stroke="#2B2A29" stroke-width="1.11" stroke-miterlimit="10"/>
<path d="M277.702 177.47C282.423 174.695 281.713 153.833 280.973 142.516C275.233 143.965 270.497 145.507 266.594 147.003C268.322 157.595 272.672 180.431 277.702 177.47Z" fill="#FFED00" stroke="#2B2A29" stroke-width="1.11" stroke-miterlimit="10"/>
<path d="M323.401 167.88C328.246 169.576 330.945 152.23 332.473 138.877C328.307 138.199 323.386 137.69 317.724 137.628C317.569 148.606 318.171 166.06 323.401 167.88Z" fill="#FFED00" stroke="#2B2A29" stroke-width="1.11" stroke-miterlimit="10"/>
<path d="M316.935 227.936C314.328 227.304 308.728 226.517 303.559 229.57C302.788 230.018 302.664 231.081 303.312 231.698L311.52 239.377C312.183 239.993 313.248 239.778 313.618 238.96L317.815 229.755C318.154 229.015 317.738 228.121 316.951 227.936H316.935Z" fill="#FFED00" stroke="#2B2A29" stroke-width="1.11" stroke-linecap="round" stroke-linejoin="round"/>
<path d="M297.465 215.061C298.591 218.037 298.144 220.967 296.462 221.599C294.78 222.246 292.497 220.35 291.355 217.39C290.229 214.414 290.677 211.484 292.358 210.852C294.04 210.204 296.323 212.101 297.465 215.061Z" fill="#2B2A29"/>
<path d="M319.805 212.934C319.219 216.064 320.176 218.854 321.95 219.194C323.724 219.533 325.637 217.266 326.223 214.136C326.81 211.006 325.853 208.215 324.079 207.876C322.305 207.537 320.391 209.803 319.805 212.934Z" fill="#2B2A29"/>
<path d="M313.619 238.96C313.619 238.96 302.665 253.824 292.684 238.868" stroke="#2B2A29" stroke-width="1.11" stroke-linecap="round" stroke-linejoin="round"/>
<path d="M311.504 239.377C311.504 239.377 318.786 246.917 326.454 242.707C334.121 238.498 329.524 231.96 329.524 231.96" stroke="#2B2A29" stroke-width="1.11" stroke-linecap="round" stroke-linejoin="round"/>
<path d="M278.086 203.173C278.086 203.173 280.77 193.583 293.437 195.88" stroke="#2B2A29" stroke-width="3.34" stroke-linecap="round" stroke-linejoin="round"/>
<path d="M316.488 194.354C316.488 194.354 326.084 188.603 334.909 197.808" stroke="#2B2A29" stroke-width="3.34" stroke-linecap="round" stroke-linejoin="round"/>
<path d="M270.789 228.892L280.015 231.189" stroke="#2B2A29" stroke-width="1.11" stroke-miterlimit="10" stroke-linecap="round"/>
<path d="M278.858 234.643L270.789 236.185" stroke="#2B2A29" stroke-width="1.11" stroke-miterlimit="10" stroke-linecap="round"/>
<path d="M280.403 238.868L274.633 241.936" stroke="#2B2A29" stroke-width="1.11" stroke-miterlimit="10" stroke-linecap="round"/>
<path d="M338.75 224.667L346.819 222.755" stroke="#2B2A29" stroke-width="1.11" stroke-miterlimit="10" stroke-linecap="round"/>
<path d="M340.293 228.506H345.662" stroke="#2B2A29" stroke-width="1.11" stroke-miterlimit="10" stroke-linecap="round"/>
<path d="M341.434 232.346L348.731 234.258" stroke="#2B2A29" stroke-width="1.11" stroke-miterlimit="10" stroke-linecap="round"/>
</g>
<defs>
<clipPath id="clip0_280_5538">
<rect width="663" height="590" fill="white"/>
</clipPath>
</defs>
</svg>
