<svg width="14" height="16" viewBox="0 0 14 16" fill="none" xmlns="http://www.w3.org/2000/svg">
<path d="M7.00021 0C3.67221 0 0.964844 2.70737 0.964844 6.03495C0.964844 10.8261 6.35263 15.6392 6.58211 15.8421C6.69991 15.9457 6.85201 16.0018 7.00888 15.9996C7.16575 15.9973 7.31618 15.9369 7.43095 15.8299C7.65958 15.616 13.0356 10.5381 13.0356 6.03537C13.0356 2.70779 10.3274 0 7.00021 0ZM7.00021 8.91284C6.24569 8.89993 5.52644 8.59114 4.99743 8.05299C4.46841 7.51484 4.17196 6.79042 4.17196 6.03579C4.17196 5.28116 4.46841 4.55673 4.99743 4.01859C5.52644 3.48044 6.24569 3.17165 7.00021 3.15874C7.76325 3.15874 8.49504 3.46185 9.0346 4.00141C9.57415 4.54096 9.87726 5.27275 9.87726 6.03579C9.87726 6.79883 9.57415 7.53062 9.0346 8.07017C8.49504 8.60972 7.76325 8.91284 7.00021 8.91284Z" fill="#2B2A29"/>
</svg>
